<svg version="1.1" id="Layer_1" xmlns="http://www.w3.org/2000/svg" xmlns:xlink="http://www.w3.org/1999/xlink" x="0px" y="0px"
	 width="100%" viewBox="0 0 1279 1338" enable-background="new 0 0 1279 1338" xml:space="preserve">
<path fill="#FBFDFD" opacity="1.000000" stroke="none" 
	d="
M702.000000,1339.000000 
	C468.000000,1339.000000 234.500000,1339.000000 1.000000,1339.000000 
	C1.000000,893.000000 1.000000,447.000000 1.000000,1.000000 
	C427.333344,1.000000 853.666687,1.000000 1280.000000,1.000000 
	C1280.000000,447.000000 1280.000000,893.000000 1280.000000,1339.000000 
	C1087.500000,1339.000000 895.000000,1339.000000 702.000000,1339.000000 
M619.002075,437.998596 
	C619.002075,437.998596 619.045593,438.031342 618.286865,437.982239 
	C617.644897,438.772125 617.002930,439.562042 616.223816,440.363770 
	C616.223816,440.363770 616.348999,440.331635 615.760315,440.336243 
	C615.613464,440.668762 615.466553,441.001282 615.120056,441.257416 
	C615.120056,441.257416 615.325989,441.348511 614.590698,441.187042 
	C613.056885,443.429474 611.523132,445.671906 609.875854,448.409851 
	C609.635132,448.634399 609.394409,448.858917 608.433960,449.118195 
	C607.548828,450.247192 606.498047,451.283234 605.804138,452.519531 
	C598.888855,464.840332 600.053162,478.373840 601.607788,491.357758 
	C603.383484,506.187683 609.794739,519.825439 617.440674,532.690002 
	C618.219971,534.001221 619.978638,534.730469 621.030579,535.982910 
	C621.030579,535.982910 621.278503,535.732117 621.153076,536.465393 
	C625.585571,545.754333 632.941650,551.988831 643.045898,552.635498 
	C649.106750,553.023376 656.515381,551.699768 661.320312,548.311829 
	C671.159241,541.374451 677.176636,530.612549 681.746216,519.626709 
	C685.765442,509.964020 688.660461,499.913818 690.564514,489.372314 
	C692.540039,478.435242 691.290466,468.285736 688.733704,458.093872 
	C687.955933,454.993561 688.247375,449.795013 682.998718,449.010895 
	C682.998718,449.010895 682.898315,449.108459 682.990479,448.296204 
	C682.630676,442.411316 673.587219,434.392731 666.985352,433.994812 
	C666.985352,433.994812 666.952209,434.069672 666.890381,433.349396 
	C666.027588,432.642395 665.265747,431.718994 664.286255,431.262085 
	C655.270935,427.056610 645.643860,426.735870 636.189819,428.371246 
	C631.014954,429.266388 624.907043,430.006622 621.745728,436.155884 
	C621.745728,436.155884 621.385559,436.208344 620.669495,436.135773 
	C620.122192,436.772675 619.574829,437.409546 619.002075,437.998596 
M824.058777,281.008423 
	C824.058777,281.008423 824.149902,281.125946 823.377075,281.061218 
	C822.284729,283.075195 821.192444,285.089203 820.023071,286.990540 
	C820.023071,286.990540 820.115906,287.091919 819.397827,287.096893 
	C818.221497,288.178131 816.738708,289.066162 815.916321,290.370544 
	C807.781921,303.272980 803.847839,317.831696 800.363525,332.409332 
	C799.199951,337.277435 800.709900,342.784607 801.090088,348.743866 
	C801.027954,349.489258 800.965759,350.234619 800.192749,351.009247 
	C798.102844,352.943817 798.343201,355.342407 801.019531,358.680328 
	C800.996765,359.125000 800.974060,359.569641 800.395081,360.574432 
	C800.870056,363.399384 801.345032,366.224335 801.962097,369.122040 
	C801.962097,369.122040 801.919495,369.275940 802.020752,369.883148 
	C803.647400,369.114044 805.794067,368.765350 806.813110,367.504944 
	C811.953979,361.146851 817.040466,354.714813 821.649475,347.969452 
	C823.927856,344.634979 825.135864,340.569153 826.914429,336.994019 
	C826.914429,336.994019 826.815674,336.833771 827.558472,336.934143 
	C829.353882,335.613312 831.149292,334.292480 833.410400,333.207062 
	C833.617188,333.482513 833.824036,333.757996 834.017700,334.727875 
	C833.341858,335.817505 832.666077,336.907166 831.302551,338.107422 
	C830.869751,339.076080 830.437012,340.044769 829.452454,341.431091 
	C826.709961,346.688660 825.036865,353.082581 820.958557,356.920776 
	C815.667297,361.900482 814.462097,368.615051 810.763062,374.134430 
	C810.163818,375.028564 811.320862,377.099823 812.405884,378.353455 
	C812.926636,378.314178 813.447449,378.274902 813.978821,378.891357 
	C814.416016,379.461853 814.853149,380.032379 815.290344,380.602875 
	C815.844116,379.706879 816.397949,378.810852 817.364441,377.520386 
	C817.917297,377.425293 818.470154,377.330231 819.617920,377.714203 
	C823.132019,377.207031 826.923218,377.369995 830.103149,376.054779 
	C836.969299,373.214935 843.781250,370.039520 850.100586,366.162262 
	C853.624329,364.000305 859.441589,363.294678 859.000000,357.000000 
	C859.000000,357.000000 859.004028,357.003876 859.789978,357.031647 
	C864.060364,357.022430 865.367798,354.613068 865.038330,350.364532 
	C865.182800,350.119232 865.378967,349.926544 866.429504,349.909363 
	C867.551758,349.366180 869.183716,349.123993 869.711731,348.229919 
	C872.658508,343.240295 875.716614,338.257721 878.023010,332.961975 
	C881.782837,324.329010 885.808533,315.863708 886.695557,306.102295 
	C887.752441,294.471344 890.954468,283.016388 891.740723,271.384705 
	C892.660034,257.784088 892.022339,244.074631 891.901611,230.413803 
	C891.891602,229.288101 890.669495,228.173111 889.928223,227.008621 
	C889.928223,227.008621 889.953430,226.918396 889.692688,226.267853 
	C888.339355,225.961655 886.490295,224.930252 885.710693,225.463242 
	C879.098206,229.983597 872.655762,234.755844 866.242249,239.559189 
	C865.586792,240.050140 865.455139,241.240448 864.994568,242.019409 
	C864.994568,242.019409 865.096008,242.086838 864.307983,242.009293 
	C862.344788,242.725555 859.999268,242.979813 858.482178,244.235184 
	C850.316589,250.992126 841.968506,257.608215 834.480286,265.072418 
	C830.380798,269.158783 824.838867,272.965057 824.999634,280.001221 
	C824.999634,280.001221 825.024170,280.013733 824.542358,280.224060 
	C824.399048,280.531738 824.255737,280.839417 824.058777,281.008423 
M466.884430,490.335999 
	C465.451691,489.649994 464.018921,488.963989 462.242676,488.201996 
	C462.242676,488.201996 461.974243,487.974640 461.726196,487.498108 
	C461.398590,487.387146 461.070984,487.276215 460.352478,487.063507 
	C460.352478,487.063507 460.028748,486.821960 459.950989,486.145996 
	C455.753357,483.154358 451.711517,479.903961 447.308868,477.252716 
	C443.772125,475.122925 439.798309,473.718933 436.001617,472.003174 
	C436.001617,472.003174 436.001190,471.984344 435.725250,471.510986 
	C435.389435,471.401245 435.053619,471.291534 434.334717,471.071442 
	C434.334717,471.071442 434.022888,470.823029 433.954132,470.147491 
	C433.202728,468.565979 432.451294,466.984467 431.699890,465.402954 
	C431.960571,464.969635 432.221222,464.536285 432.481873,464.102966 
	C436.633453,466.178589 440.767365,468.290588 444.941376,470.320099 
	C449.603088,472.586761 454.301208,474.778595 459.000336,476.996765 
	C459.000336,476.996765 459.001953,477.014069 459.242157,477.486786 
	C459.568451,477.579559 459.894745,477.672333 460.246246,477.764191 
	C460.246246,477.764191 460.251770,477.739136 460.153351,478.491455 
	C460.911377,479.518066 461.449585,480.918030 462.461334,481.513763 
	C472.906921,487.664215 483.372650,493.786469 493.975922,499.658112 
	C496.170044,500.873077 498.954620,501.021759 502.131805,501.839081 
	C526.185974,515.769714 550.240173,529.700378 575.164673,544.135132 
	C574.698364,540.221619 574.409912,537.593628 574.069031,534.972534 
	C570.490173,507.458862 559.803223,483.210693 541.008423,462.629822 
	C524.362610,444.402191 504.378937,430.527710 482.300323,420.121033 
	C451.762726,405.727234 420.628540,392.596039 389.713104,379.007751 
	C363.142853,367.329376 337.190613,354.581818 314.263885,336.453430 
	C313.099396,335.532623 311.868317,334.696014 310.668243,333.820221 
	C312.159363,344.874359 314.387817,355.250336 317.072113,365.507019 
	C327.111786,403.867950 340.618469,440.779785 363.534882,473.597626 
	C385.708923,505.352448 414.532440,528.515442 451.352844,541.411682 
	C482.056122,552.165344 513.750061,554.255432 545.882874,552.814453 
	C551.396912,552.567200 556.888123,551.810425 563.795959,551.155823 
	C560.874451,549.169006 559.291809,547.999573 557.621948,546.972168 
	C545.994629,539.818359 534.324158,532.734436 522.715820,525.550110 
	C507.438995,516.095459 492.206482,506.569214 476.721771,496.422577 
	C474.579987,492.605042 471.094391,491.236023 466.988342,490.998444 
	C466.988342,490.998444 466.942352,491.056946 466.884430,490.335999 
M932.173706,551.776855 
	C933.594055,552.102783 935.014404,552.428711 937.080994,552.780701 
	C937.703979,552.947083 938.327026,553.113464 939.094543,553.988953 
	C941.398193,554.995300 943.613342,556.471069 946.021179,556.925110 
	C955.529114,558.718201 965.094177,560.211792 974.656433,561.698364 
	C975.009583,561.753235 975.554077,560.577209 976.830688,559.856934 
	C978.211060,559.886414 979.591492,559.915955 981.499695,560.532837 
	C984.013977,560.088928 986.528198,559.645081 989.770325,559.053162 
	C990.510376,559.019043 991.250427,558.984924 992.475769,559.527954 
	C998.585510,558.546082 1005.221375,558.761353 1010.703735,556.352051 
	C1025.590820,549.809631 1039.438232,541.345032 1050.614014,529.180847 
	C1052.713989,526.895142 1054.546509,524.364685 1056.629517,522.062195 
	C1062.815186,515.224976 1069.153931,508.523743 1075.226685,501.588623 
	C1076.791626,499.801331 1077.876221,497.447937 1078.680298,495.177124 
	C1079.655762,492.422424 1078.649780,490.216614 1075.493896,489.830566 
	C1073.101318,489.537811 1070.645874,489.797791 1068.236938,489.593231 
	C1058.698853,488.783112 1049.166260,487.166443 1039.634766,487.189667 
	C1024.910278,487.225494 1010.175232,488.162018 995.471741,489.128357 
	C989.594849,489.514587 983.692017,490.620911 977.987366,492.112244 
	C974.334778,493.067078 970.989563,495.260345 967.565552,497.013611 
	C961.303284,500.220123 954.901978,503.216492 948.935425,506.909332 
	C946.441895,508.452606 944.910950,511.551178 942.269897,514.058838 
	C939.439819,517.308716 936.609741,520.558594 933.074158,523.927795 
	C930.175781,526.701965 926.851562,529.167847 924.537170,532.364807 
	C923.124878,534.315674 922.068909,537.980896 922.979004,539.829590 
	C924.506958,542.933533 928.020386,541.899414 931.000122,540.883972 
	C935.825073,539.239868 940.674194,537.626709 945.598511,536.322937 
	C954.786499,533.890198 964.022400,531.633545 973.265442,529.416260 
	C977.563354,528.385193 981.924622,527.617615 986.257141,526.730652 
	C986.429260,527.437378 986.601379,528.144104 986.773499,528.850830 
	C984.938782,529.337769 983.104553,529.826599 981.269165,530.311157 
	C978.872681,530.943787 976.429382,531.437378 974.087708,532.231201 
	C968.646729,534.075562 963.255310,536.066040 957.842468,537.993591 
	C952.418945,539.925049 946.971497,541.794067 941.596008,543.851013 
	C940.892761,544.120056 940.554626,545.343201 939.744995,546.492310 
	C939.460815,546.645264 939.216675,546.846802 938.366394,547.067688 
	C937.936829,547.104980 937.507263,547.142334 936.705017,546.632019 
	C935.137451,547.383667 933.569824,548.135315 931.521851,549.209351 
	C931.689758,549.814514 931.857666,550.419617 932.173706,551.776855 
M283.976868,644.384155 
	C284.119171,644.298706 284.261444,644.213257 284.403748,644.127869 
	C284.277954,644.078491 284.152161,644.029114 284.099396,643.276489 
	C262.960968,613.368896 234.651108,596.025085 197.644730,593.865601 
	C177.081055,592.665649 156.767883,594.940735 136.541870,598.271912 
	C126.108032,599.990295 115.722305,602.000854 104.832382,603.966431 
	C105.576118,605.258911 105.846321,606.077393 106.390228,606.622864 
	C121.062370,621.337585 135.109756,636.761841 150.640472,650.509705 
	C166.370102,664.433655 185.100067,672.902832 206.599396,674.265198 
	C228.242142,675.636658 248.453262,670.066956 268.276184,662.310913 
	C271.239197,661.151611 274.120483,659.783447 278.218445,657.998413 
	C276.171753,657.333435 275.601227,657.102173 275.009125,656.962280 
	C253.819641,651.958130 232.619095,647.000122 211.448212,641.918640 
	C208.749390,641.270813 206.057251,640.240540 203.660431,638.866821 
	C202.722839,638.329468 202.100311,636.278687 202.288727,635.065430 
	C202.423706,634.196228 204.052917,633.268616 205.184998,632.923889 
	C206.388748,632.557373 207.818924,632.676941 209.104721,632.876831 
	C223.388412,635.097046 237.651199,637.454163 251.944473,639.609558 
	C262.594116,641.215515 273.280151,642.580200 283.976868,644.384155 
M344.259247,875.953430 
	C320.114563,888.326233 295.983643,900.726074 271.804382,913.030884 
	C269.331970,914.289062 266.625153,915.396179 263.918610,915.755188 
	C262.546906,915.937195 260.326172,914.628052 259.625977,913.363647 
	C259.094177,912.403381 259.924042,910.009094 260.915649,909.031677 
	C262.779327,907.194580 265.121460,905.792847 267.397247,904.431824 
	C289.261444,891.356873 311.154877,878.330750 333.033752,865.280273 
	C334.359589,864.489502 335.633423,863.611450 336.931427,862.773926 
	C336.866913,862.228394 336.802368,861.682800 336.737823,861.137207 
	C327.076843,859.747437 317.457916,857.778442 307.747223,857.073303 
	C274.733093,854.676208 245.879089,865.288025 220.317642,885.879883 
	C200.475067,901.864746 183.899124,920.968689 167.604309,940.361877 
	C163.143692,945.670715 158.763565,951.047180 154.152939,956.626953 
	C155.298645,957.274292 155.817474,957.748108 156.411224,957.877014 
	C186.466537,964.404846 216.662308,968.537781 247.500916,964.152405 
	C293.226562,957.650085 323.989319,932.420288 341.008514,889.895813 
	C342.775604,885.480591 343.804352,880.769897 345.568359,876.091309 
	C345.523682,875.859619 345.479004,875.627991 345.434326,875.396301 
	C345.285858,875.590332 345.137360,875.784363 344.259247,875.953430 
M763.884216,1027.727173 
	C763.780579,1027.713501 763.676880,1027.699829 763.573242,1027.686157 
	C763.729187,1027.774780 763.885132,1027.863403 763.733093,1028.718872 
	C768.031738,1041.123657 772.296631,1053.540161 776.639282,1065.929565 
	C780.434692,1076.757568 784.371216,1087.536255 788.126221,1098.378174 
	C789.120789,1101.249878 790.972351,1105.138306 787.135559,1106.656860 
	C783.416138,1108.128906 781.816467,1104.374268 780.554810,1101.398682 
	C774.384033,1086.845093 768.228333,1072.285034 762.062866,1057.729248 
	C758.013916,1048.170288 753.957458,1038.614502 749.494446,1028.090820 
	C742.186096,1042.115723 738.170288,1055.875122 736.984741,1070.432739 
	C734.683838,1098.687744 743.416565,1123.967041 758.317688,1147.446411 
	C772.641052,1170.015625 791.155762,1188.866943 811.330261,1206.170410 
	C817.321716,1211.309204 823.579712,1216.137207 830.447083,1221.700195 
	C838.293030,1187.510498 844.505737,1154.464111 840.239868,1120.333252 
	C836.458740,1090.080688 824.108093,1064.602905 799.215759,1046.115356 
	C788.505676,1038.161133 777.114258,1031.362061 763.884216,1027.727173 
M692.945251,721.412598 
	C697.794800,697.460205 708.951599,677.125916 727.736206,661.264587 
	C750.013733,642.454041 776.536987,632.452454 804.212585,625.096191 
	C848.602173,613.297119 894.279846,609.640442 939.642151,603.956116 
	C956.793091,601.806946 973.859985,598.924988 990.893616,595.965027 
	C993.756836,595.467529 996.254517,592.866272 998.921082,591.237061 
	C996.053345,589.886902 993.266907,587.618835 990.302795,587.356018 
	C980.856201,586.518677 971.343201,586.090515 961.856506,586.100098 
	C885.210205,586.177734 808.562683,586.179443 731.918762,586.689514 
	C707.975281,586.848816 684.348877,586.254822 661.637207,577.520386 
	C651.105286,573.470093 640.496216,573.843811 629.908447,577.670837 
	C610.252197,584.775818 589.982666,587.188171 569.087402,586.747559 
	C532.605957,585.978149 496.107239,585.682007 459.617065,585.763733 
	C408.304047,585.878662 356.991913,586.487488 305.680695,587.010986 
	C302.431946,587.044128 299.152802,588.009277 295.974304,588.862915 
	C294.886536,589.155029 293.387146,590.378174 293.312378,591.278687 
	C293.239166,592.160645 294.556335,593.621643 295.585083,594.043335 
	C298.485352,595.232300 301.488953,596.405884 304.561890,596.897156 
	C319.995422,599.364136 335.444031,601.756226 350.924561,603.906494 
	C387.816223,609.030701 424.847351,613.277466 461.595123,619.270691 
	C490.556030,623.993835 518.575073,632.553101 544.341431,647.252625 
	C569.672607,661.703735 587.751404,682.107300 596.400391,710.335999 
	C603.749084,734.320557 603.168396,758.543518 596.232300,782.204590 
	C590.077454,803.200439 582.068359,823.682617 574.257935,844.155090 
	C565.486572,867.145996 561.899048,890.610168 564.758423,915.132812 
	C567.242310,936.435486 573.467651,956.749512 580.582886,976.790283 
	C593.221863,1012.389160 604.059631,1048.482422 610.941895,1085.642944 
	C618.569946,1126.830322 625.663879,1168.116821 632.962952,1209.364990 
	C634.128540,1215.952148 638.933655,1219.800049 646.107178,1219.705078 
	C653.212646,1219.611084 657.954651,1215.981079 659.024109,1209.725830 
	C664.038818,1180.397949 668.843445,1151.032715 674.084167,1121.745361 
	C680.379211,1086.565430 687.400330,1051.519409 698.015137,1017.337769 
	C705.553223,993.063721 714.112488,969.100830 721.364502,944.745483 
	C732.191040,908.384949 730.472290,872.679993 715.185364,837.507324 
	C707.917480,820.785156 702.026062,803.376160 696.729309,785.908875 
	C690.434937,765.152100 688.578308,743.813354 692.945251,721.412598 
M933.575134,466.059967 
	C959.352478,425.704987 972.423584,380.715759 982.516174,333.102478 
	C980.042175,334.839233 978.756409,335.797821 977.416565,336.673706 
	C965.444641,344.499756 954.104919,353.624359 941.352661,359.857300 
	C913.709717,373.368347 885.437378,385.613770 857.245483,397.973114 
	C828.716248,410.480255 800.091614,422.703094 774.802856,441.358337 
	C749.970276,459.677124 731.364990,482.584442 722.802429,512.636108 
	C719.982361,522.533447 718.496765,532.810974 716.400940,542.914673 
	C719.738159,542.453308 721.664856,541.513855 723.513000,540.439453 
	C766.985168,515.166199 810.436707,489.857483 853.943665,464.644318 
	C856.581909,463.115387 860.151855,459.654480 862.548157,463.874329 
	C864.784546,467.812775 860.385620,469.506805 857.664368,471.183929 
	C821.658447,493.374329 785.620178,515.512451 749.596802,537.674622 
	C742.846436,541.827576 736.125610,546.028625 728.583069,550.708923 
	C730.979675,551.268494 732.240723,551.729675 733.531616,551.839539 
	C758.676025,553.979309 783.797974,554.099487 808.733154,549.753418 
	C862.408691,540.398071 903.794556,512.479248 933.575134,466.059967 
M943.633118,1008.926880 
	C943.429749,1008.121704 943.197937,1007.322571 943.026978,1006.510559 
	C936.784180,976.856323 929.692871,947.453918 916.946350,919.759155 
	C898.674805,880.059692 869.932861,852.317017 826.692627,841.501404 
	C817.142090,839.112488 807.323303,837.796326 797.627991,835.986206 
	C797.385986,836.515381 797.143982,837.044556 796.901978,837.573730 
	C797.648499,838.982544 798.315369,840.440796 799.153381,841.792969 
	C815.468140,868.119202 831.803833,894.432495 848.132751,920.750000 
	C853.399719,929.238892 858.812256,937.644714 863.780945,946.304932 
	C864.670227,947.854980 863.710144,950.466003 863.603943,952.587158 
	C861.430237,951.957703 859.214478,951.438293 857.107666,950.633484 
	C856.452515,950.383118 856.061523,949.380249 855.602112,948.687012 
	C837.484070,921.346619 819.371216,894.002686 801.259705,866.657898 
	C795.408569,857.823975 789.562866,848.986450 783.463013,839.770325 
	C782.721436,840.864807 782.261292,841.348755 782.022339,841.924438 
	C766.470764,879.383057 766.627197,916.074158 787.505981,951.704773 
	C802.544189,977.368164 823.993774,996.953918 847.597412,1014.367981 
	C878.536743,1037.194214 912.425476,1055.024048 946.731262,1072.104126 
	C950.212402,1073.837402 953.743347,1075.470337 957.886292,1077.453979 
	C953.084534,1054.258423 948.476501,1031.998291 943.633118,1008.926880 
M385.285706,900.833313 
	C375.475555,916.647827 367.864166,933.587402 363.184082,951.472046 
	C355.445862,981.043457 348.893677,1010.927124 341.973114,1040.709595 
	C339.202087,1052.634766 336.779144,1064.640747 334.067261,1077.215210 
	C335.901520,1076.535400 337.175323,1076.231567 338.285278,1075.626953 
	C365.619873,1060.738037 393.344971,1046.508179 420.138062,1030.699463 
	C444.875519,1016.103638 467.437469,998.359924 486.471558,976.567322 
	C514.082825,944.954285 527.575500,909.166138 517.944458,866.919922 
	C515.869324,857.817566 512.586304,848.990723 509.465851,838.743591 
	C507.451202,841.665649 506.491455,843.011169 505.578827,844.388000 
	C484.785645,875.755981 463.997284,907.127197 443.209137,938.498474 
	C440.725037,942.247131 438.578705,946.292542 435.630981,949.631165 
	C434.086853,951.380066 430.428497,953.374146 428.969818,952.671875 
	C425.297546,950.903870 427.375916,947.665588 428.841827,945.029846 
	C429.164642,944.449463 429.594727,943.929871 429.945740,943.363953 
	C450.484772,910.247681 471.026489,877.133179 491.543427,844.003235 
	C492.867645,841.864929 493.998596,839.606995 495.757782,836.433533 
	C448.153442,840.673462 410.622467,859.587830 385.285706,900.833313 
M739.593567,715.106445 
	C735.417725,720.505432 731.241882,725.904480 727.066101,731.303467 
	C727.449219,731.757019 727.832275,732.210632 728.215393,732.664185 
	C730.153992,732.664185 732.097168,732.752075 734.030396,732.650330 
	C749.653015,731.828308 765.278015,731.041565 780.894226,730.108337 
	C808.498901,728.458740 835.796326,724.562805 862.805542,718.635742 
	C866.375793,717.852234 869.915649,716.754211 873.526733,716.421509 
	C874.928589,716.292419 876.488708,717.881226 877.976685,718.687500 
	C877.202271,720.046082 876.630371,721.597473 875.583740,722.696960 
	C874.862366,723.454834 873.513672,723.711975 872.394409,723.980530 
	C828.515991,734.511230 784.308472,742.964783 739.098511,745.119812 
	C735.769531,745.278564 732.458801,745.820190 728.088745,746.298950 
	C745.088684,762.081604 762.317139,775.278625 782.170105,784.779419 
	C805.752441,796.064697 830.043945,799.628235 855.220459,790.705811 
	C872.310364,784.649231 886.753479,774.266296 899.724426,761.844055 
	C926.412292,736.285278 946.453979,705.622681 966.069641,674.660217 
	C966.726074,673.624023 966.964600,672.323120 967.563843,670.694763 
	C965.461670,670.436584 963.864441,670.093750 962.261719,670.065613 
	C937.966187,669.638672 913.666504,668.792908 889.374817,668.977600 
	C861.012268,669.193176 832.959351,672.714050 805.503357,680.062683 
	C781.108826,686.591919 758.334412,696.338928 739.593567,715.106445 
M460.968170,674.348938 
	C415.604431,667.048828 370.082062,667.529785 323.716248,670.586426 
	C324.965546,672.804810 325.534058,674.008057 326.272278,675.096191 
	C337.772461,692.046326 348.868011,709.292297 360.921600,725.840149 
	C375.384552,745.695801 391.717712,763.929993 412.234192,777.902893 
	C430.819366,790.560364 450.992859,797.437012 473.857422,795.183044 
	C491.849762,793.409485 507.982056,786.692688 523.256348,777.564087 
	C537.816895,768.862000 551.158875,758.541931 563.916077,746.198364 
	C561.319336,745.963318 559.550659,745.787659 557.779419,745.645447 
	C545.502380,744.660034 533.096558,744.483093 520.972717,742.542725 
	C490.785645,737.711182 460.721069,732.110413 430.623352,726.728943 
	C426.372803,725.968933 422.073273,725.063660 418.075409,723.508423 
	C416.388275,722.852051 415.424438,720.336487 414.131805,718.666016 
	C415.949005,717.955688 417.726288,716.837158 419.595062,716.654419 
	C421.328247,716.484985 423.147125,717.384949 424.948853,717.694580 
	C443.445343,720.872375 461.865784,724.662537 480.468018,727.008362 
	C499.273224,729.379700 518.244995,730.538513 537.173279,731.778137 
	C546.026917,732.357971 554.950012,731.877380 564.517273,731.877380 
	C563.494324,730.052795 562.944275,728.444397 561.891785,727.296631 
	C555.174316,719.970398 549.122559,711.762512 541.409119,705.671570 
	C518.152100,687.306396 490.343018,679.838013 460.968170,674.348938 
M1089.135254,714.230408 
	C1071.347290,712.953369 1053.589722,712.348267 1035.827271,714.911804 
	C1007.811340,718.955200 983.466431,730.105835 964.877136,751.899719 
	C958.507263,759.367676 953.366516,767.883972 947.068115,776.761475 
	C949.621277,776.761475 950.465759,776.874756 951.271179,776.745056 
	C980.805786,771.991150 1010.331177,767.179504 1039.875000,762.483154 
	C1043.837036,761.853394 1048.510010,760.322693 1050.717407,765.471375 
	C1051.886597,768.198425 1047.771484,771.454834 1042.063110,772.784790 
	C1020.210022,777.875977 998.353271,782.951294 976.508423,788.077209 
	C970.149048,789.569397 963.824646,791.210632 956.216919,793.097900 
	C978.605530,805.572998 1000.652832,814.394897 1025.089111,816.019043 
	C1053.237183,817.889954 1078.136963,808.861267 1101.050537,793.234192 
	C1126.595825,775.812378 1147.458740,753.419067 1167.735962,730.408630 
	C1168.523315,729.515198 1168.969971,728.321411 1170.267944,726.062195 
	C1142.932251,722.065308 1116.493652,718.199585 1089.135254,714.230408 
M325.077362,749.444458 
	C319.055511,744.222595 313.421387,738.451355 306.941345,733.878845 
	C284.858032,718.296204 259.468536,713.596619 233.128296,713.140564 
	C203.887939,712.634399 175.131348,717.292542 146.458389,722.426453 
	C138.490311,723.853149 130.522049,725.278870 122.033844,726.798157 
	C123.034424,728.370789 123.522125,729.414124 124.252182,730.244385 
	C143.957413,752.652466 164.298599,774.406555 188.815018,791.755432 
	C222.271576,815.430664 258.467621,822.858643 298.039490,809.968872 
	C310.835541,805.800781 323.116577,800.514343 335.105652,793.407959 
	C334.023438,792.811829 333.493164,792.353088 332.888428,792.210693 
	C311.212799,787.105835 289.523804,782.057617 267.852142,776.935974 
	C260.576660,775.216614 253.228989,773.660889 246.160751,771.294312 
	C244.086334,770.599670 242.858994,767.375244 241.243408,765.310242 
	C243.426300,764.212280 245.537140,762.910950 247.822266,762.101685 
	C248.979218,761.692017 250.470062,762.053833 251.777603,762.266113 
	C274.898804,766.020813 298.011841,769.825928 321.134186,773.573608 
	C328.517700,774.770447 335.922974,775.832642 343.318298,776.956421 
	C343.686920,776.481445 344.055542,776.006470 344.424194,775.531494 
	C338.141479,767.005127 331.858765,758.478821 325.077362,749.444458 
M724.963074,264.547363 
	C715.318359,250.072083 705.673645,235.596817 695.358154,220.114792 
	C691.151123,235.947311 687.110718,250.353775 683.509644,264.869202 
	C675.722778,296.256042 669.340088,327.836182 671.968689,360.497284 
	C673.994141,385.663727 681.967896,408.288513 700.310486,426.385101 
	C706.399719,432.392639 713.082642,437.697876 721.763062,441.418701 
	C720.309448,426.560822 718.946838,412.519318 717.559143,398.480316 
	C716.070251,383.417084 714.464172,368.364136 713.181580,353.283508 
	C713.031921,351.523590 714.612976,349.616486 715.391663,347.777618 
	C716.585876,349.369415 718.555908,350.827911 718.855957,352.573395 
	C722.373535,373.040253 725.625488,393.552582 728.980835,414.047485 
	C730.299866,422.104370 731.702026,430.147644 733.137695,438.618134 
	C734.170532,437.806335 734.582581,437.533844 734.932007,437.196442 
	C735.530273,436.618805 736.115906,436.023651 736.661133,435.396149 
	C763.343750,404.688049 769.185425,369.783417 757.597534,331.371124 
	C750.415466,307.563660 738.343201,286.134766 724.963074,264.547363 
M614.843506,291.856110 
	C609.040161,268.368134 603.236755,244.880157 597.433350,221.392166 
	C596.966492,221.365784 596.499634,221.339417 596.032715,221.313034 
	C590.003418,230.242477 583.950989,239.156418 577.949219,248.104309 
	C560.388428,274.285217 543.733704,300.962524 534.503845,331.462830 
	C526.097961,359.240448 526.102173,386.558990 539.930176,412.878601 
	C544.797363,422.142578 550.645447,430.706299 558.661438,438.257965 
	C559.230103,436.169250 559.751099,434.761810 559.988831,433.308014 
	C564.359131,406.577393 568.658081,379.834930 573.110718,353.118103 
	C573.467957,350.974243 574.834656,348.998627 575.732361,346.944824 
	C576.493408,347.064911 577.254517,347.184998 578.015564,347.305054 
	C578.294800,350.078522 579.032532,352.894653 578.778992,355.618561 
	C577.098328,373.676636 575.187805,391.713196 573.387817,409.760345 
	C572.356628,420.099304 571.392883,430.444977 570.337646,441.423462 
	C572.100769,440.667755 573.193726,440.329803 574.155212,439.767273 
	C584.785950,433.547424 593.863159,425.527985 601.104126,415.584167 
	C617.391357,393.217163 621.746216,367.499908 620.443726,340.737091 
	C619.661987,324.675507 616.863586,308.712067 614.843506,291.856110 
M1006.907227,857.495300 
	C989.387146,855.795349 972.155823,857.154053 954.310181,862.235107 
	C956.688660,863.785400 958.296997,864.914490 959.980042,865.918396 
	C982.127258,879.128967 1004.288879,892.315613 1026.432251,905.532654 
	C1027.995361,906.465637 1029.851562,907.304810 1030.833008,908.705139 
	C1031.835571,910.135681 1032.830078,912.729919 1032.176147,913.852539 
	C1031.456055,915.088989 1028.834595,915.768982 1027.079346,915.701843 
	C1025.197510,915.630005 1023.278381,914.564636 1021.515015,913.660828 
	C1004.487610,904.933167 987.496887,896.134155 970.479980,887.385925 
	C962.591614,883.330627 954.668640,879.342529 945.653992,874.761169 
	C947.433838,879.937744 948.648315,883.868591 950.123657,887.698975 
	C964.775391,925.738281 990.495117,951.752991 1030.911499,961.575989 
	C1052.517456,966.827209 1074.437744,967.181335 1096.377075,964.474182 
	C1110.146484,962.775085 1123.811035,960.224548 1138.989990,957.824097 
	C1133.348389,951.057312 1128.694824,945.511902 1124.080078,939.934265 
	C1107.610596,920.028320 1090.573730,900.673279 1070.150269,884.628540 
	C1051.740845,870.166138 1031.316284,860.330078 1006.907227,857.495300 
M1022.235962,655.744385 
	C1019.908752,656.331604 1017.581543,656.918823 1014.298462,657.747192 
	C1016.177368,658.820190 1017.066650,659.532898 1018.080994,659.875916 
	C1029.721558,663.812988 1041.186035,668.480896 1053.075195,671.431030 
	C1080.515503,678.240173 1106.494507,674.536926 1130.437256,658.710266 
	C1149.821411,645.896912 1165.574219,629.234985 1180.886719,612.064758 
	C1183.009033,609.685059 1184.921143,607.117981 1187.223755,604.275635 
	C1185.264160,603.731689 1184.163696,603.321106 1183.026123,603.125916 
	C1159.437378,599.079346 1135.942871,594.616028 1111.909424,593.537170 
	C1069.514771,591.634033 1035.103394,606.383911 1009.635437,640.791870 
	C1008.821960,641.890869 1008.184082,643.119995 1007.054626,644.953857 
	C1023.528320,642.275879 1039.085938,639.711792 1054.656372,637.228333 
	C1064.504761,635.657654 1074.352295,634.039124 1084.249756,632.857788 
	C1086.029785,632.645325 1088.051636,634.456665 1089.961792,635.333618 
	C1088.515747,637.102905 1087.297729,639.162048 1085.544678,640.541077 
	C1084.347656,641.482666 1082.410889,641.504883 1080.792725,641.886658 
	C1061.536865,646.429382 1042.278687,650.962341 1022.235962,655.744385 
M405.947601,300.475250 
	C407.558014,306.919342 408.812836,313.477631 410.838776,319.788330 
	C420.990479,351.410339 442.415649,370.667969 474.936005,377.515808 
	C476.583984,377.862823 478.286835,377.949371 480.857239,378.267853 
	C479.619446,375.853699 478.953125,374.361084 478.122986,372.965973 
	C472.417297,363.377563 466.641083,353.831024 460.960144,344.228088 
	C456.555298,336.782166 452.183136,329.314117 447.996521,321.745239 
	C447.440155,320.739349 448.064056,319.080627 448.141327,317.724243 
	C449.493317,318.020630 451.057129,317.992798 452.140472,318.700439 
	C453.333405,319.479645 454.143860,320.892090 455.018677,322.102600 
	C459.408112,328.176208 463.745941,334.287079 468.135956,340.360260 
	C475.120300,350.022491 482.131500,359.665283 489.983734,370.491516 
	C493.231750,338.136108 487.405640,309.517273 469.448547,283.841553 
	C452.557556,259.690186 429.257660,242.865311 404.570526,227.686508 
	C403.954346,227.307678 403.091187,227.330536 401.976501,227.085403 
	C401.976501,238.282013 401.482086,249.128937 402.102570,259.911682 
	C402.865784,273.175140 404.558929,286.385101 405.947601,300.475250 
M307.598938,559.235596 
	C326.073486,560.442139 343.690582,556.881470 362.010956,549.937561 
	C359.209869,548.926331 357.697235,548.332642 356.154816,547.830688 
	C339.881989,542.534607 323.587646,537.303894 307.344482,531.918701 
	C304.571930,530.999512 300.197327,530.708069 301.482239,526.357666 
	C301.799622,525.283020 306.763062,524.712158 309.270538,525.292664 
	C326.582153,529.300476 343.804962,533.690918 361.068054,537.910461 
	C363.188446,538.428711 365.378326,538.662842 368.464294,539.186096 
	C367.055573,536.855713 366.279144,535.416809 365.360809,534.075073 
	C348.531738,509.484650 325.151123,495.466858 295.856659,490.896881 
	C276.459015,487.870819 257.029633,488.714905 237.597107,490.221741 
	C230.046768,490.807220 222.525925,491.773041 214.483307,492.619049 
	C215.240707,494.094879 215.563385,495.012848 216.117035,495.759583 
	C226.947479,510.367798 238.634460,524.250610 252.612457,535.950134 
	C268.245361,549.034790 285.801056,558.012085 307.598938,559.235596 
z"/>
<path fill="#037E85" opacity="1.000000" stroke="none" 
	d="
M692.869751,721.833740 
	C688.578308,743.813354 690.434937,765.152100 696.729309,785.908875 
	C702.026062,803.376160 707.917480,820.785156 715.185364,837.507324 
	C730.472290,872.679993 732.191040,908.384949 721.364502,944.745483 
	C714.112488,969.100830 705.553223,993.063721 698.015137,1017.337769 
	C687.400330,1051.519409 680.379211,1086.565430 674.084167,1121.745361 
	C668.843445,1151.032715 664.038818,1180.397949 659.024109,1209.725830 
	C657.954651,1215.981079 653.212646,1219.611084 646.107178,1219.705078 
	C638.933655,1219.800049 634.128540,1215.952148 632.962952,1209.364990 
	C625.663879,1168.116821 618.569946,1126.830322 610.941895,1085.642944 
	C604.059631,1048.482422 593.221863,1012.389160 580.582886,976.790283 
	C573.467651,956.749512 567.242310,936.435486 564.758423,915.132812 
	C561.899048,890.610168 565.486572,867.145996 574.257935,844.155090 
	C582.068359,823.682617 590.077454,803.200439 596.232300,782.204590 
	C603.168396,758.543518 603.749084,734.320557 596.400391,710.335999 
	C587.751404,682.107300 569.672607,661.703735 544.341431,647.252625 
	C518.575073,632.553101 490.556030,623.993835 461.595123,619.270691 
	C424.847351,613.277466 387.816223,609.030701 350.924561,603.906494 
	C335.444031,601.756226 319.995422,599.364136 304.561890,596.897156 
	C301.488953,596.405884 298.485352,595.232300 295.585083,594.043335 
	C294.556335,593.621643 293.239166,592.160645 293.312378,591.278687 
	C293.387146,590.378174 294.886536,589.155029 295.974304,588.862915 
	C299.152802,588.009277 302.431946,587.044128 305.680695,587.010986 
	C356.991913,586.487488 408.304047,585.878662 459.617065,585.763733 
	C496.107239,585.682007 532.605957,585.978149 569.087402,586.747559 
	C589.982666,587.188171 610.252197,584.775818 629.908447,577.670837 
	C640.496216,573.843811 651.105286,573.470093 661.637207,577.520386 
	C684.348877,586.254822 707.975281,586.848816 731.918762,586.689514 
	C808.562683,586.179443 885.210205,586.177734 961.856506,586.100098 
	C971.343201,586.090515 980.856201,586.518677 990.302795,587.356018 
	C993.266907,587.618835 996.053345,589.886902 998.921082,591.237061 
	C996.254517,592.866272 993.756836,595.467529 990.893616,595.965027 
	C973.859985,598.924988 956.793091,601.806946 939.642151,603.956116 
	C894.279846,609.640442 848.602173,613.297119 804.212585,625.096191 
	C776.536987,632.452454 750.013733,642.454041 727.736206,661.264587 
	C708.951599,677.125916 697.794800,697.460205 692.869751,721.833740 
z"/>
<path fill="#70AA3A" opacity="1.000000" stroke="none" 
	d="
M933.382507,466.367096 
	C903.794556,512.479248 862.408691,540.398071 808.733154,549.753418 
	C783.797974,554.099487 758.676025,553.979309 733.531616,551.839539 
	C732.240723,551.729675 730.979675,551.268494 728.583069,550.708923 
	C736.125610,546.028625 742.846436,541.827576 749.596802,537.674622 
	C785.620178,515.512451 821.658447,493.374329 857.664368,471.183929 
	C860.385620,469.506805 864.784546,467.812775 862.548157,463.874329 
	C860.151855,459.654480 856.581909,463.115387 853.943665,464.644318 
	C810.436707,489.857483 766.985168,515.166199 723.513000,540.439453 
	C721.664856,541.513855 719.738159,542.453308 716.400940,542.914673 
	C718.496765,532.810974 719.982361,522.533447 722.802429,512.636108 
	C731.364990,482.584442 749.970276,459.677124 774.802856,441.358337 
	C800.091614,422.703094 828.716248,410.480255 857.245483,397.973114 
	C885.437378,385.613770 913.709717,373.368347 941.352661,359.857300 
	C954.104919,353.624359 965.444641,344.499756 977.416565,336.673706 
	C978.756409,335.797821 980.042175,334.839233 982.516174,333.102478 
	C972.423584,380.715759 959.352478,425.704987 933.382507,466.367096 
z"/>
<path fill="#1FA8B4" opacity="1.000000" stroke="none" 
	d="
M460.028748,486.821960 
	C460.028748,486.821960 460.352478,487.063507 460.673553,487.350677 
	C461.321167,487.750092 461.647705,487.862366 461.974243,487.974640 
	C461.974243,487.974640 462.242676,488.201996 462.580200,488.526428 
	C464.259277,489.586243 465.600800,490.321594 466.942352,491.056946 
	C466.942352,491.056946 466.988342,490.998444 467.133789,491.321655 
	C470.504456,493.454498 473.729675,495.264099 476.954926,497.073730 
	C492.206482,506.569214 507.438995,516.095459 522.715820,525.550110 
	C534.324158,532.734436 545.994629,539.818359 557.621948,546.972168 
	C559.291809,547.999573 560.874451,549.169006 563.795959,551.155823 
	C556.888123,551.810425 551.396912,552.567200 545.882874,552.814453 
	C513.750061,554.255432 482.056122,552.165344 451.352844,541.411682 
	C414.532440,528.515442 385.708923,505.352448 363.534882,473.597626 
	C340.618469,440.779785 327.111786,403.867950 317.072113,365.507019 
	C314.387817,355.250336 312.159363,344.874359 310.668243,333.820221 
	C311.868317,334.696014 313.099396,335.532623 314.263885,336.453430 
	C337.190613,354.581818 363.142853,367.329376 389.713104,379.007751 
	C420.628540,392.596039 451.762726,405.727234 482.300323,420.121033 
	C504.378937,430.527710 524.362610,444.402191 541.008423,462.629822 
	C559.803223,483.210693 570.490173,507.458862 574.069031,534.972534 
	C574.409912,537.593628 574.698364,540.221619 575.164673,544.135132 
	C550.240173,529.700378 526.185974,515.769714 501.618805,501.462708 
	C499.566925,500.123688 498.061676,499.101685 496.483826,498.207886 
	C484.414398,491.370911 472.330902,484.558899 460.251770,477.739136 
	C460.251770,477.739136 460.246246,477.764191 460.113281,477.532349 
	C459.654205,477.205017 459.328094,477.109528 459.001953,477.014038 
	C459.001953,477.014069 459.000336,476.996765 458.844238,476.695984 
	C454.270569,473.765991 449.869141,471.109192 445.430145,468.516724 
	C442.137543,466.593750 438.936462,464.390045 435.416321,463.033722 
	C433.697510,462.371490 431.343719,463.357239 429.277344,463.597046 
	C429.989746,465.590118 430.542725,467.664703 431.498383,469.533325 
	C431.847137,470.215240 433.153442,470.407410 434.022888,470.822998 
	C434.022888,470.823029 434.334717,471.071442 434.657349,471.368774 
	C435.320374,471.772217 435.660797,471.878265 436.001190,471.984344 
	C436.001190,471.984344 436.001617,472.003174 436.173523,472.292603 
	C444.239868,477.328674 452.134308,482.075317 460.028748,486.821960 
z"/>
<path fill="#70AA39" opacity="1.000000" stroke="none" 
	d="
M943.750732,1009.332520 
	C948.476501,1031.998291 953.084534,1054.258423 957.886292,1077.453979 
	C953.743347,1075.470337 950.212402,1073.837402 946.731262,1072.104126 
	C912.425476,1055.024048 878.536743,1037.194214 847.597412,1014.367981 
	C823.993774,996.953918 802.544189,977.368164 787.505981,951.704773 
	C766.627197,916.074158 766.470764,879.383057 782.022339,841.924438 
	C782.261292,841.348755 782.721436,840.864807 783.463013,839.770325 
	C789.562866,848.986450 795.408569,857.823975 801.259705,866.657898 
	C819.371216,894.002686 837.484070,921.346619 855.602112,948.687012 
	C856.061523,949.380249 856.452515,950.383118 857.107666,950.633484 
	C859.214478,951.438293 861.430237,951.957703 863.603943,952.587158 
	C863.710144,950.466003 864.670227,947.854980 863.780945,946.304932 
	C858.812256,937.644714 853.399719,929.238892 848.132751,920.750000 
	C831.803833,894.432495 815.468140,868.119202 799.153381,841.792969 
	C798.315369,840.440796 797.648499,838.982544 796.901978,837.573730 
	C797.143982,837.044556 797.385986,836.515381 797.627991,835.986206 
	C807.323303,837.796326 817.142090,839.112488 826.692627,841.501404 
	C869.932861,852.317017 898.674805,880.059692 916.946350,919.759155 
	C929.692871,947.453918 936.784180,976.856323 943.026978,1006.510559 
	C943.197937,1007.322571 943.429749,1008.121704 943.750732,1009.332520 
z"/>
<path fill="#1FA8B4" opacity="1.000000" stroke="none" 
	d="
M385.488953,900.529663 
	C410.622467,859.587830 448.153442,840.673462 495.757782,836.433533 
	C493.998596,839.606995 492.867645,841.864929 491.543427,844.003235 
	C471.026489,877.133179 450.484772,910.247681 429.945740,943.363953 
	C429.594727,943.929871 429.164642,944.449463 428.841827,945.029846 
	C427.375916,947.665588 425.297546,950.903870 428.969818,952.671875 
	C430.428497,953.374146 434.086853,951.380066 435.630981,949.631165 
	C438.578705,946.292542 440.725037,942.247131 443.209137,938.498474 
	C463.997284,907.127197 484.785645,875.755981 505.578827,844.388000 
	C506.491455,843.011169 507.451202,841.665649 509.465851,838.743591 
	C512.586304,848.990723 515.869324,857.817566 517.944458,866.919922 
	C527.575500,909.166138 514.082825,944.954285 486.471558,976.567322 
	C467.437469,998.359924 444.875519,1016.103638 420.138062,1030.699463 
	C393.344971,1046.508179 365.619873,1060.738037 338.285278,1075.626953 
	C337.175323,1076.231567 335.901520,1076.535400 334.067261,1077.215210 
	C336.779144,1064.640747 339.202087,1052.634766 341.973114,1040.709595 
	C348.893677,1010.927124 355.445862,981.043457 363.184082,951.472046 
	C367.864166,933.587402 375.475555,916.647827 385.488953,900.529663 
z"/>
<path fill="#70AA3A" opacity="1.000000" stroke="none" 
	d="
M739.847839,714.856689 
	C758.334412,696.338928 781.108826,686.591919 805.503357,680.062683 
	C832.959351,672.714050 861.012268,669.193176 889.374817,668.977600 
	C913.666504,668.792908 937.966187,669.638672 962.261719,670.065613 
	C963.864441,670.093750 965.461670,670.436584 967.563843,670.694763 
	C966.964600,672.323120 966.726074,673.624023 966.069641,674.660217 
	C946.453979,705.622681 926.412292,736.285278 899.724426,761.844055 
	C886.753479,774.266296 872.310364,784.649231 855.220459,790.705811 
	C830.043945,799.628235 805.752441,796.064697 782.170105,784.779419 
	C762.317139,775.278625 745.088684,762.081604 728.088745,746.298950 
	C732.458801,745.820190 735.769531,745.278564 739.098511,745.119812 
	C784.308472,742.964783 828.515991,734.511230 872.394409,723.980530 
	C873.513672,723.711975 874.862366,723.454834 875.583740,722.696960 
	C876.630371,721.597473 877.202271,720.046082 877.976685,718.687500 
	C876.488708,717.881226 874.928589,716.292419 873.526733,716.421509 
	C869.915649,716.754211 866.375793,717.852234 862.805542,718.635742 
	C835.796326,724.562805 808.498901,728.458740 780.894226,730.108337 
	C765.278015,731.041565 749.653015,731.828308 734.030396,732.650330 
	C732.097168,732.752075 730.153992,732.664185 728.215393,732.664185 
	C727.832275,732.210632 727.449219,731.757019 727.066101,731.303467 
	C731.241882,725.904480 735.417725,720.505432 739.847839,714.856689 
z"/>
<path fill="#20A8B3" opacity="1.000000" stroke="none" 
	d="
M461.379120,674.490540 
	C490.343018,679.838013 518.152100,687.306396 541.409119,705.671570 
	C549.122559,711.762512 555.174316,719.970398 561.891785,727.296631 
	C562.944275,728.444397 563.494324,730.052795 564.517273,731.877380 
	C554.950012,731.877380 546.026917,732.357971 537.173279,731.778137 
	C518.244995,730.538513 499.273224,729.379700 480.468018,727.008362 
	C461.865784,724.662537 443.445343,720.872375 424.948853,717.694580 
	C423.147125,717.384949 421.328247,716.484985 419.595062,716.654419 
	C417.726288,716.837158 415.949005,717.955688 414.131805,718.666016 
	C415.424438,720.336487 416.388275,722.852051 418.075409,723.508423 
	C422.073273,725.063660 426.372803,725.968933 430.623352,726.728943 
	C460.721069,732.110413 490.785645,737.711182 520.972717,742.542725 
	C533.096558,744.483093 545.502380,744.660034 557.779419,745.645447 
	C559.550659,745.787659 561.319336,745.963318 563.916077,746.198364 
	C551.158875,758.541931 537.816895,768.862000 523.256348,777.564087 
	C507.982056,786.692688 491.849762,793.409485 473.857422,795.183044 
	C450.992859,797.437012 430.819366,790.560364 412.234192,777.902893 
	C391.717712,763.929993 375.384552,745.695801 360.921600,725.840149 
	C348.868011,709.292297 337.772461,692.046326 326.272278,675.096191 
	C325.534058,674.008057 324.965546,672.804810 323.716248,670.586426 
	C370.082062,667.529785 415.604431,667.048828 461.379120,674.490540 
z"/>
<path fill="#70AA3A" opacity="1.000000" stroke="none" 
	d="
M1089.595215,714.282104 
	C1116.493652,718.199585 1142.932251,722.065308 1170.267944,726.062195 
	C1168.969971,728.321411 1168.523315,729.515198 1167.735962,730.408630 
	C1147.458740,753.419067 1126.595825,775.812378 1101.050537,793.234192 
	C1078.136963,808.861267 1053.237183,817.889954 1025.089111,816.019043 
	C1000.652832,814.394897 978.605530,805.572998 956.216919,793.097900 
	C963.824646,791.210632 970.149048,789.569397 976.508423,788.077209 
	C998.353271,782.951294 1020.210022,777.875977 1042.063110,772.784790 
	C1047.771484,771.454834 1051.886597,768.198425 1050.717407,765.471375 
	C1048.510010,760.322693 1043.837036,761.853394 1039.875000,762.483154 
	C1010.331177,767.179504 980.805786,771.991150 951.271179,776.745056 
	C950.465759,776.874756 949.621277,776.761475 947.068115,776.761475 
	C953.366516,767.883972 958.507263,759.367676 964.877136,751.899719 
	C983.466431,730.105835 1007.811340,718.955200 1035.827271,714.911804 
	C1053.589722,712.348267 1071.347290,712.953369 1089.595215,714.282104 
z"/>
<path fill="#20A8B3" opacity="1.000000" stroke="none" 
	d="
M325.326721,749.698486 
	C331.858765,758.478821 338.141479,767.005127 344.424194,775.531494 
	C344.055542,776.006470 343.686920,776.481445 343.318298,776.956421 
	C335.922974,775.832642 328.517700,774.770447 321.134186,773.573608 
	C298.011841,769.825928 274.898804,766.020813 251.777603,762.266113 
	C250.470062,762.053833 248.979218,761.692017 247.822266,762.101685 
	C245.537140,762.910950 243.426300,764.212280 241.243408,765.310242 
	C242.858994,767.375244 244.086334,770.599670 246.160751,771.294312 
	C253.228989,773.660889 260.576660,775.216614 267.852142,776.935974 
	C289.523804,782.057617 311.212799,787.105835 332.888428,792.210693 
	C333.493164,792.353088 334.023438,792.811829 335.105652,793.407959 
	C323.116577,800.514343 310.835541,805.800781 298.039490,809.968872 
	C258.467621,822.858643 222.271576,815.430664 188.815018,791.755432 
	C164.298599,774.406555 143.957413,752.652466 124.252182,730.244385 
	C123.522125,729.414124 123.034424,728.370789 122.033844,726.798157 
	C130.522049,725.278870 138.490311,723.853149 146.458389,722.426453 
	C175.131348,717.292542 203.887939,712.634399 233.128296,713.140564 
	C259.468536,713.596619 284.858032,718.296204 306.941345,733.878845 
	C313.421387,738.451355 319.055511,744.222595 325.326721,749.698486 
z"/>
<path fill="#70AA3A" opacity="1.000000" stroke="none" 
	d="
M725.175110,264.841431 
	C738.343201,286.134766 750.415466,307.563660 757.597534,331.371124 
	C769.185425,369.783417 763.343750,404.688049 736.661133,435.396149 
	C736.115906,436.023651 735.530273,436.618805 734.932007,437.196442 
	C734.582581,437.533844 734.170532,437.806335 733.137695,438.618134 
	C731.702026,430.147644 730.299866,422.104370 728.980835,414.047485 
	C725.625488,393.552582 722.373535,373.040253 718.855957,352.573395 
	C718.555908,350.827911 716.585876,349.369415 715.391663,347.777588 
	C714.612976,349.616486 713.031921,351.523590 713.181580,353.283508 
	C714.464172,368.364136 716.070251,383.417084 717.559143,398.480316 
	C718.946838,412.519318 720.309448,426.560822 721.763062,441.418701 
	C713.082642,437.697876 706.399719,432.392639 700.310486,426.385101 
	C681.967896,408.288513 673.994141,385.663727 671.968689,360.497284 
	C669.340088,327.836182 675.722778,296.256042 683.509644,264.869202 
	C687.110718,250.353775 691.151123,235.947311 695.358154,220.114792 
	C705.673645,235.596817 715.318359,250.072083 725.175110,264.841431 
z"/>
<path fill="#20A8B3" opacity="1.000000" stroke="none" 
	d="
M614.907532,292.280334 
	C616.863586,308.712067 619.661987,324.675507 620.443726,340.737091 
	C621.746216,367.499908 617.391357,393.217163 601.104126,415.584167 
	C593.863159,425.527985 584.785950,433.547424 574.155212,439.767273 
	C573.193726,440.329803 572.100769,440.667755 570.337646,441.423462 
	C571.392883,430.444977 572.356628,420.099304 573.387817,409.760345 
	C575.187805,391.713196 577.098328,373.676636 578.778992,355.618561 
	C579.032532,352.894653 578.294800,350.078522 578.015564,347.305054 
	C577.254517,347.184998 576.493408,347.064911 575.732361,346.944824 
	C574.834656,348.998627 573.467957,350.974243 573.110718,353.118103 
	C568.658081,379.834930 564.359131,406.577393 559.988831,433.308014 
	C559.751099,434.761810 559.230103,436.169250 558.661438,438.257965 
	C550.645447,430.706299 544.797363,422.142578 539.930176,412.878601 
	C526.102173,386.558990 526.097961,359.240448 534.503845,331.462830 
	C543.733704,300.962524 560.388428,274.285217 577.949219,248.104309 
	C583.950989,239.156418 590.003418,230.242477 596.032715,221.313034 
	C596.499634,221.339417 596.966492,221.365784 597.433350,221.392166 
	C603.236755,244.880157 609.040161,268.368134 614.907532,292.280334 
z"/>
<path fill="#70AA3A" opacity="1.000000" stroke="none" 
	d="
M763.995789,1028.010742 
	C777.114258,1031.362061 788.505676,1038.161133 799.215759,1046.115356 
	C824.108093,1064.602905 836.458740,1090.080688 840.239868,1120.333252 
	C844.505737,1154.464111 838.293030,1187.510498 830.447083,1221.700195 
	C823.579712,1216.137207 817.321716,1211.309204 811.330261,1206.170410 
	C791.155762,1188.866943 772.641052,1170.015625 758.317688,1147.446411 
	C743.416565,1123.967041 734.683838,1098.687744 736.984741,1070.432739 
	C738.170288,1055.875122 742.186096,1042.115723 749.494446,1028.090820 
	C753.957458,1038.614502 758.013916,1048.170288 762.062866,1057.729248 
	C768.228333,1072.285034 774.384033,1086.845093 780.554810,1101.398682 
	C781.816467,1104.374268 783.416138,1108.128906 787.135559,1106.656860 
	C790.972351,1105.138306 789.120789,1101.249878 788.126221,1098.378174 
	C784.371216,1087.536255 780.434692,1076.757568 776.639282,1065.929565 
	C772.296631,1053.540161 768.031738,1041.123657 763.875061,1028.350220 
	C764.017029,1027.981567 763.995789,1028.010742 763.995789,1028.010742 
z"/>
<path fill="#70AA3B" opacity="1.000000" stroke="none" 
	d="
M1007.351562,857.584595 
	C1031.316284,860.330078 1051.740845,870.166138 1070.150269,884.628540 
	C1090.573730,900.673279 1107.610596,920.028320 1124.080078,939.934265 
	C1128.694824,945.511902 1133.348389,951.057312 1138.989990,957.824097 
	C1123.811035,960.224548 1110.146484,962.775085 1096.377075,964.474182 
	C1074.437744,967.181335 1052.517456,966.827209 1030.911499,961.575989 
	C990.495117,951.752991 964.775391,925.738281 950.123657,887.698975 
	C948.648315,883.868591 947.433838,879.937744 945.653992,874.761169 
	C954.668640,879.342529 962.591614,883.330627 970.479980,887.385925 
	C987.496887,896.134155 1004.487610,904.933167 1021.515015,913.660828 
	C1023.278381,914.564636 1025.197510,915.630005 1027.079346,915.701843 
	C1028.834595,915.768982 1031.456055,915.088989 1032.176147,913.852539 
	C1032.830078,912.729919 1031.835571,910.135681 1030.833008,908.705139 
	C1029.851562,907.304810 1027.995361,906.465637 1026.432251,905.532654 
	C1004.288879,892.315613 982.127258,879.128967 959.980042,865.918396 
	C958.296997,864.914490 956.688660,863.785400 954.310181,862.235107 
	C972.155823,857.154053 989.387146,855.795349 1007.351562,857.584595 
z"/>
<path fill="#20A8B3" opacity="1.000000" stroke="none" 
	d="
M345.175659,876.196289 
	C343.804352,880.769897 342.775604,885.480591 341.008514,889.895813 
	C323.989319,932.420288 293.226562,957.650085 247.500916,964.152405 
	C216.662308,968.537781 186.466537,964.404846 156.411224,957.877014 
	C155.817474,957.748108 155.298645,957.274292 154.152939,956.626953 
	C158.763565,951.047180 163.143692,945.670715 167.604309,940.361877 
	C183.899124,920.968689 200.475067,901.864746 220.317642,885.879883 
	C245.879089,865.288025 274.733093,854.676208 307.747223,857.073303 
	C317.457916,857.778442 327.076843,859.747437 336.737823,861.137207 
	C336.802368,861.682800 336.866913,862.228394 336.931427,862.773926 
	C335.633423,863.611450 334.359589,864.489502 333.033752,865.280273 
	C311.154877,878.330750 289.261444,891.356873 267.397247,904.431824 
	C265.121460,905.792847 262.779327,907.194580 260.915649,909.031677 
	C259.924042,910.009094 259.094177,912.403381 259.625977,913.363647 
	C260.326172,914.628052 262.546906,915.937195 263.918610,915.755188 
	C266.625153,915.396179 269.331970,914.289062 271.804382,913.030884 
	C295.983643,900.726074 320.114563,888.326233 344.670959,876.020203 
	C345.082672,876.086975 345.175659,876.196289 345.175659,876.196289 
z"/>
<path fill="#71AA3C" opacity="1.000000" stroke="none" 
	d="
M1022.628540,655.621155 
	C1042.278687,650.962341 1061.536865,646.429382 1080.792725,641.886658 
	C1082.410889,641.504883 1084.347656,641.482666 1085.544678,640.541077 
	C1087.297729,639.162048 1088.515747,637.102905 1089.961792,635.333618 
	C1088.051636,634.456665 1086.029785,632.645325 1084.249756,632.857788 
	C1074.352295,634.039124 1064.504761,635.657654 1054.656372,637.228333 
	C1039.085938,639.711792 1023.528320,642.275879 1007.054626,644.953857 
	C1008.184082,643.119995 1008.821960,641.890869 1009.635437,640.791870 
	C1035.103394,606.383911 1069.514771,591.634033 1111.909424,593.537170 
	C1135.942871,594.616028 1159.437378,599.079346 1183.026123,603.125916 
	C1184.163696,603.321106 1185.264160,603.731689 1187.223755,604.275635 
	C1184.921143,607.117981 1183.009033,609.685059 1180.886719,612.064758 
	C1165.574219,629.234985 1149.821411,645.896912 1130.437256,658.710266 
	C1106.494507,674.536926 1080.515503,678.240173 1053.075195,671.431030 
	C1041.186035,668.480896 1029.721558,663.812988 1018.080994,659.875916 
	C1017.066650,659.532898 1016.177368,658.820190 1014.298462,657.747192 
	C1017.581543,656.918823 1019.908752,656.331604 1022.628540,655.621155 
z"/>
<path fill="#21A8B3" opacity="1.000000" stroke="none" 
	d="
M283.949982,644.052307 
	C273.280151,642.580200 262.594116,641.215515 251.944473,639.609558 
	C237.651199,637.454163 223.388412,635.097046 209.104721,632.876831 
	C207.818924,632.676941 206.388748,632.557373 205.184998,632.923889 
	C204.052917,633.268616 202.423706,634.196228 202.288727,635.065430 
	C202.100311,636.278687 202.722839,638.329468 203.660431,638.866821 
	C206.057251,640.240540 208.749390,641.270813 211.448212,641.918640 
	C232.619095,647.000122 253.819641,651.958130 275.009125,656.962280 
	C275.601227,657.102173 276.171753,657.333435 278.218445,657.998413 
	C274.120483,659.783447 271.239197,661.151611 268.276184,662.310913 
	C248.453262,670.066956 228.242142,675.636658 206.599396,674.265198 
	C185.100067,672.902832 166.370102,664.433655 150.640472,650.509705 
	C135.109756,636.761841 121.062370,621.337585 106.390228,606.622864 
	C105.846321,606.077393 105.576118,605.258911 104.832382,603.966431 
	C115.722305,602.000854 126.108032,599.990295 136.541870,598.271912 
	C156.767883,594.940735 177.081055,592.665649 197.644730,593.865601 
	C234.651108,596.025085 262.960968,613.368896 284.043396,643.645874 
	C283.987427,644.015198 283.949982,644.052307 283.949982,644.052307 
z"/>
<path fill="#047E84" opacity="1.000000" stroke="none" 
	d="
M609.153687,449.083435 
	C609.394409,448.858917 609.635132,448.634399 610.218750,448.008057 
	C612.149780,445.520325 613.737854,443.434418 615.325928,441.348511 
	C615.325989,441.348511 615.120056,441.257416 615.463379,441.214203 
	C615.987427,440.891205 616.168213,440.611420 616.348999,440.331635 
	C616.348999,440.331635 616.223816,440.363770 616.581055,440.261292 
	C617.640747,439.449646 618.343140,438.740479 619.045593,438.031311 
	C619.045593,438.031342 619.002075,437.998596 619.326660,437.972900 
	C620.229309,437.367615 620.807434,436.787994 621.385559,436.208344 
	C621.385559,436.208344 621.745728,436.155884 622.224121,435.988281 
	C637.138428,427.303528 651.919861,427.515442 666.952209,434.069672 
	C666.952209,434.069672 666.985352,433.994812 667.141113,434.306335 
	C672.497314,439.448090 677.697815,444.278259 682.898315,449.108459 
	C682.898315,449.108459 682.998718,449.010895 682.988464,449.410095 
	C684.689453,454.114777 686.878174,458.296875 688.028320,462.747375 
	C692.762268,481.065430 688.449280,498.523651 681.211060,515.158875 
	C677.220947,524.329163 672.013550,533.377197 665.590881,540.992432 
	C654.009521,554.724243 638.621826,554.284851 626.267883,541.232361 
	C624.566711,539.434998 622.939819,537.567261 621.278503,535.732117 
	C621.278503,535.732117 621.030579,535.982910 621.085938,535.517944 
	C620.420471,533.939819 619.619080,532.870178 618.990723,531.707153 
	C604.814209,505.466522 594.784485,478.724823 609.153687,449.083435 
z"/>
<path fill="#21A8B3" opacity="1.000000" stroke="none" 
	d="
M405.898865,300.046692 
	C404.558929,286.385101 402.865784,273.175140 402.102570,259.911682 
	C401.482086,249.128937 401.976501,238.282013 401.976501,227.085403 
	C403.091187,227.330536 403.954346,227.307678 404.570526,227.686508 
	C429.257660,242.865311 452.557556,259.690186 469.448547,283.841553 
	C487.405640,309.517273 493.231750,338.136108 489.983734,370.491516 
	C482.131500,359.665283 475.120300,350.022491 468.135956,340.360260 
	C463.745941,334.287079 459.408112,328.176208 455.018677,322.102600 
	C454.143860,320.892090 453.333405,319.479645 452.140472,318.700439 
	C451.057129,317.992798 449.493317,318.020630 448.141357,317.724243 
	C448.064056,319.080627 447.440155,320.739349 447.996521,321.745239 
	C452.183136,329.314117 456.555298,336.782166 460.960144,344.228088 
	C466.641083,353.831024 472.417297,363.377563 478.122986,372.965973 
	C478.953125,374.361084 479.619446,375.853699 480.857239,378.267853 
	C478.286835,377.949371 476.583984,377.862823 474.936005,377.515808 
	C442.415649,370.667969 420.990479,351.410339 410.838776,319.788330 
	C408.812836,313.477631 407.558014,306.919342 405.898865,300.046692 
z"/>
<path fill="#70AA3B" opacity="1.000000" stroke="none" 
	d="
M865.626831,349.786499 
	C865.378967,349.926544 865.182800,350.119232 864.649902,350.677795 
	C862.508972,352.995331 860.756531,354.999603 859.004028,357.003906 
	C859.004028,357.003876 859.000000,357.000000 858.667603,357.061951 
	C854.785034,359.806885 851.556946,363.168060 847.620361,365.037292 
	C838.266296,369.479004 828.576904,373.214355 819.023010,377.235107 
	C818.470154,377.330231 817.917297,377.425293 816.779419,377.666992 
	C815.452332,377.954285 814.710266,378.094971 813.968201,378.235596 
	C813.447449,378.274902 812.926636,378.314178 812.112488,378.079132 
	C813.075867,375.309509 814.200928,372.736969 815.611084,370.331635 
	C823.880798,356.226349 832.217102,342.160126 840.683167,327.895966 
	C840.835327,327.711212 840.960754,327.249237 841.221436,327.103577 
	C841.767029,326.555969 842.149902,326.191559 842.320618,325.745941 
	C843.342773,323.076965 847.358032,319.830780 843.603271,317.737000 
	C840.241516,315.862305 838.128601,319.868774 836.588440,323.126526 
	C836.393250,323.495361 836.360779,323.664124 836.034302,323.928223 
	C834.700623,325.543549 833.660889,327.063538 832.632263,328.616150 
	C832.643433,328.648773 832.584045,328.683777 832.301880,328.842957 
	C830.285034,331.612701 828.550354,334.223267 826.815674,336.833801 
	C826.815674,336.833771 826.914429,336.994019 826.562683,337.046631 
	C823.001709,341.476929 819.847534,345.896301 816.570190,350.222473 
	C811.732605,356.608459 806.807434,362.928101 801.919495,369.275940 
	C801.919495,369.275940 801.962097,369.122040 801.952637,368.651550 
	C801.612610,365.458801 801.281982,362.736572 800.951355,360.014313 
	C800.974060,359.569641 800.996765,359.125000 801.060181,357.919800 
	C801.035156,355.099487 800.969360,353.039764 800.903564,350.980011 
	C800.965759,350.234619 801.027954,349.489258 801.262207,348.032104 
	C802.530090,339.611450 803.362122,331.853699 804.779968,324.204498 
	C807.266846,310.787872 813.625854,298.895447 820.115906,287.091919 
	C820.115906,287.091919 820.023071,286.990540 820.354858,286.891418 
	C821.841064,284.903503 822.995483,283.014740 824.149902,281.125946 
	C824.149902,281.125946 824.058777,281.008423 824.336914,280.984406 
	C824.751404,280.644836 824.887756,280.329285 825.024170,280.013733 
	C825.024170,280.013733 824.999634,280.001221 825.315552,279.875214 
	C831.202637,273.610229 836.428040,267.105591 842.434021,261.426544 
	C849.640503,254.612427 857.512329,248.501984 865.096008,242.086853 
	C865.096008,242.086838 864.994568,242.019409 865.381470,242.011719 
	C873.830078,236.975494 881.891785,231.946945 889.953430,226.918396 
	C889.953430,226.918396 889.928223,227.008621 889.913452,227.490845 
	C889.916138,229.137146 889.940369,230.301163 889.950073,231.465317 
	C890.140381,254.238693 890.131775,276.976898 886.152527,299.545380 
	C882.928162,317.832428 876.559509,334.710083 865.626831,349.786499 
z"/>
<path fill="#22A8B2" opacity="1.000000" stroke="none" 
	d="
M307.116760,559.207153 
	C285.801056,558.012085 268.245361,549.034790 252.612457,535.950134 
	C238.634460,524.250610 226.947479,510.367798 216.117035,495.759583 
	C215.563385,495.012848 215.240707,494.094879 214.483307,492.619049 
	C222.525925,491.773041 230.046768,490.807220 237.597107,490.221741 
	C257.029633,488.714905 276.459015,487.870819 295.856659,490.896881 
	C325.151123,495.466858 348.531738,509.484650 365.360809,534.075073 
	C366.279144,535.416809 367.055573,536.855713 368.464294,539.186096 
	C365.378326,538.662842 363.188446,538.428711 361.068054,537.910461 
	C343.804962,533.690918 326.582153,529.300476 309.270538,525.292664 
	C306.763062,524.712158 301.799622,525.283020 301.482239,526.357666 
	C300.197327,530.708069 304.571930,530.999512 307.344482,531.918701 
	C323.587646,537.303894 339.881989,542.534607 356.154816,547.830688 
	C357.697235,548.332642 359.209869,548.926331 362.010956,549.937561 
	C343.690582,556.881470 326.073486,560.442139 307.116760,559.207153 
z"/>
<path fill="#70AA3B" opacity="1.000000" stroke="none" 
	d="
M937.077698,547.179626 
	C937.507263,547.142334 937.936829,547.104980 938.958374,547.341003 
	C941.846130,547.842712 944.746033,549.424988 945.272461,545.042114 
	C945.852417,544.878174 946.198669,544.837219 947.008911,544.860229 
	C951.197998,543.966492 954.968201,543.154663 958.639954,542.023499 
	C969.222595,538.763062 979.771118,535.390869 990.319641,532.020752 
	C992.491821,531.326782 994.113586,530.279114 991.722778,527.583008 
	C990.123047,526.168579 988.565552,525.087708 986.951172,523.668701 
	C981.718323,524.359863 976.538940,525.372864 971.378296,526.473267 
	C971.154236,526.521057 971.101440,527.371826 970.643616,527.961670 
	C969.212708,528.320984 968.106995,528.567139 966.890320,528.672729 
	C966.518005,528.675720 966.256653,528.819214 965.748413,529.056396 
	C965.152649,529.168701 964.803650,529.187378 963.980225,529.145020 
	C960.903564,529.355957 958.245544,529.378784 955.709961,529.947754 
	C948.676941,531.525940 941.707397,533.386292 934.681213,534.997559 
	C933.400146,535.291260 931.970032,534.934937 930.608643,534.878723 
	C931.248779,533.332336 931.703125,531.672485 932.565308,530.261841 
	C934.776550,526.643921 937.169006,523.136719 939.534302,519.578125 
	C939.579651,519.570984 939.598572,519.481262 939.977661,519.617432 
	C945.337280,516.315186 951.033142,513.561829 955.133545,509.280548 
	C961.553955,502.576843 970.564270,501.630310 978.056946,497.421478 
	C982.860718,494.723053 989.025146,494.475494 994.542358,492.990723 
	C995.472229,492.740509 996.212463,491.785980 997.395935,491.077942 
	C998.476746,490.949768 999.201965,490.900513 1000.175415,491.159912 
	C1002.339050,491.321350 1004.260559,490.991516 1006.169006,491.054962 
	C1025.673096,491.703552 1045.178345,492.341064 1064.673828,493.195709 
	C1067.430176,493.316559 1070.136353,494.582642 1072.646851,495.259644 
	C1070.923706,499.044006 1069.534302,502.095367 1068.128174,505.066742 
	C1068.111572,504.986786 1068.172363,505.139038 1067.804688,505.122864 
	C1063.798218,508.682587 1060.023438,512.134583 1056.587158,515.895691 
	C1055.222290,517.389709 1054.607544,519.569153 1053.599609,521.439331 
	C1053.547974,521.442139 1053.481812,521.521606 1053.099731,521.467163 
	C1047.932373,523.162781 1043.738281,525.443542 1043.636475,531.523560 
	C1043.568481,531.589905 1043.412109,531.697876 1043.065552,531.512573 
	C1042.309082,532.011414 1041.899292,532.695618 1041.445557,533.397339 
	C1041.401733,533.414856 1041.361938,533.500488 1040.980713,533.350952 
	C1039.443970,534.573120 1038.288574,535.944763 1037.032104,537.502563 
	C1036.738403,537.914185 1036.495361,538.048401 1035.802979,538.060791 
	C1031.070923,538.795166 1026.935669,539.816833 1026.087646,545.169128 
	C1026.037354,545.168274 1026.132812,545.138855 1025.731445,545.089966 
	C1022.016968,546.388367 1018.569641,547.479431 1015.414612,549.129395 
	C1004.423767,554.877197 992.651123,557.994507 980.395630,557.799194 
	C970.713135,557.644958 961.061584,555.730896 951.386108,554.692810 
	C950.273499,554.573425 949.095642,555.060852 947.623413,555.222412 
	C946.875122,555.073120 946.451477,554.968384 945.937378,554.501831 
	C944.192322,553.802490 942.537659,553.464966 940.934326,553.104187 
	C940.985535,553.080872 940.926819,553.176941 940.768250,552.863281 
	C939.398376,551.006958 938.187012,549.464233 937.029907,547.739990 
	C937.084167,547.558472 937.077698,547.179626 937.077698,547.179626 
z"/>
<path fill="#EAF9D9" opacity="1.000000" stroke="none" 
	d="
M999.927185,490.851257 
	C999.201965,490.900513 998.476746,490.949768 996.986450,491.010132 
	C976.496826,494.005463 958.781250,501.467438 943.450439,514.452209 
	C943.281067,514.282349 942.942322,513.942627 942.942322,513.942627 
	C944.910950,511.551178 946.441895,508.452606 948.935425,506.909332 
	C954.901978,503.216492 961.303284,500.220123 967.565552,497.013611 
	C970.989563,495.260345 974.334778,493.067078 977.987366,492.112244 
	C983.692017,490.620911 989.594849,489.514587 995.471741,489.128357 
	C1010.175232,488.162018 1024.910278,487.225494 1039.634766,487.189667 
	C1049.166260,487.166443 1058.698853,488.783112 1068.236938,489.593231 
	C1070.645874,489.797791 1073.101318,489.537811 1075.493896,489.830566 
	C1078.649780,490.216614 1079.655762,492.422424 1078.680298,495.177124 
	C1077.876221,497.447937 1076.791626,499.801331 1075.226685,501.588623 
	C1069.153931,508.523743 1062.815186,515.224976 1056.629517,522.062195 
	C1054.546509,524.364685 1052.713989,526.895142 1050.614014,529.180847 
	C1039.438232,541.345032 1025.590820,549.809631 1010.703735,556.352051 
	C1005.221375,558.761353 998.585510,558.546082 992.527466,558.993286 
	C1004.706360,556.393250 1016.080811,552.431702 1026.132812,545.138855 
	C1026.132812,545.138855 1026.037354,545.168274 1026.429565,545.118530 
	C1029.948486,542.743042 1033.075195,540.417175 1036.201904,538.091370 
	C1036.495361,538.048401 1036.738403,537.914185 1037.353027,537.402039 
	C1038.970703,535.910400 1040.166382,534.705444 1041.361938,533.500488 
	C1041.361938,533.500488 1041.401733,533.414856 1041.710693,533.337646 
	C1042.483887,532.739563 1042.947998,532.218750 1043.412109,531.697876 
	C1043.412109,531.697876 1043.568481,531.589905 1043.933228,531.463257 
	C1047.359253,528.064941 1050.420532,524.793274 1053.481689,521.521606 
	C1053.481812,521.521606 1053.547974,521.442139 1053.901123,521.383667 
	C1058.893799,515.929749 1063.533081,510.534424 1068.172363,505.139038 
	C1068.172363,505.139038 1068.111572,504.986786 1068.430420,504.921082 
	C1071.641724,501.133850 1074.534424,497.412292 1077.746460,493.279938 
	C1075.936768,492.723541 1075.031372,492.240753 1074.102173,492.189514 
	C1054.434204,491.105133 1034.770264,489.895599 1015.089111,489.144287 
	C1010.064209,488.952484 1004.982666,490.242249 999.927185,490.851257 
z"/>
<path fill="#EAF9D9" opacity="1.000000" stroke="none" 
	d="
M987.008118,524.006836 
	C988.565552,525.087708 990.123047,526.168579 991.452759,527.782959 
	C988.960266,529.568604 986.819153,531.176697 984.410156,532.013062 
	C971.825928,536.382080 959.173584,540.555115 946.544983,544.796265 
	C946.198669,544.837219 945.852417,544.878174 944.906250,545.036011 
	C942.886719,545.476746 941.467102,545.800659 940.047363,546.124512 
	C940.554626,545.343201 940.892761,544.120056 941.596008,543.851013 
	C946.971497,541.794067 952.418945,539.925049 957.842468,537.993591 
	C963.255310,536.066040 968.646729,534.075562 974.087708,532.231201 
	C976.429382,531.437378 978.872681,530.943787 981.269165,530.311157 
	C983.104553,529.826599 984.938782,529.337769 986.773499,528.850830 
	C986.601379,528.144104 986.429260,527.437378 986.257141,526.730652 
	C981.924622,527.617615 977.563354,528.385193 973.265442,529.416260 
	C964.022400,531.633545 954.786499,533.890198 945.598511,536.322937 
	C940.674194,537.626709 935.825073,539.239868 931.000122,540.883972 
	C928.020386,541.899414 924.506958,542.933533 922.979004,539.829590 
	C922.068909,537.980896 923.124878,534.315674 924.537170,532.364807 
	C926.851562,529.167847 930.175781,526.701965 933.504517,523.935303 
	C933.934875,523.942810 934.085327,524.082458 933.951782,524.390991 
	C930.521362,529.224487 927.224487,533.749390 923.927673,538.274231 
	C924.183228,538.686157 924.438843,539.098022 924.694397,539.509949 
	C937.947876,536.075317 951.201294,532.640686 964.454712,529.206055 
	C964.803650,529.187378 965.152649,529.168701 966.009094,529.080627 
	C966.678223,528.945190 966.839783,528.879211 967.001282,528.813293 
	C968.106995,528.567139 969.212708,528.320984 971.035400,527.989502 
	C976.837585,526.605103 981.922852,525.305969 987.008118,524.006836 
z"/>
<path fill="#D1F5F6" opacity="1.000000" stroke="none" 
	d="
M621.215820,536.098755 
	C622.939819,537.567261 624.566711,539.434998 626.267883,541.232361 
	C638.621826,554.284851 654.009521,554.724243 665.590881,540.992432 
	C672.013550,533.377197 677.220947,524.329163 681.211060,515.158875 
	C688.449280,498.523651 692.762268,481.065430 688.028320,462.747375 
	C686.878174,458.296875 684.689453,454.114777 682.931274,449.450287 
	C688.247375,449.795013 687.955933,454.993561 688.733704,458.093872 
	C691.290466,468.285736 692.540039,478.435242 690.564514,489.372314 
	C688.660461,499.913818 685.765442,509.964020 681.746216,519.626709 
	C677.176636,530.612549 671.159241,541.374451 661.320312,548.311829 
	C656.515381,551.699768 649.106750,553.023376 643.045898,552.635498 
	C632.941650,551.988831 625.585571,545.754333 621.215820,536.098755 
z"/>
<path fill="#E6F6D3" opacity="1.000000" stroke="none" 
	d="
M866.028198,349.847931 
	C876.559509,334.710083 882.928162,317.832428 886.152527,299.545380 
	C890.131775,276.976898 890.140381,254.238693 889.950073,231.465317 
	C889.940369,230.301163 889.916138,229.137146 889.954651,227.513107 
	C890.669495,228.173111 891.891602,229.288101 891.901611,230.413803 
	C892.022339,244.074631 892.660034,257.784088 891.740723,271.384705 
	C890.954468,283.016388 887.752441,294.471344 886.695557,306.102295 
	C885.808533,315.863708 881.782837,324.329010 878.023010,332.961975 
	C875.716614,338.257721 872.658508,343.240295 869.711731,348.229919 
	C869.183716,349.123993 867.551758,349.366180 866.028198,349.847931 
z"/>
<path fill="#D1F5F6" opacity="1.000000" stroke="none" 
	d="
M608.793823,449.100830 
	C594.784485,478.724823 604.814209,505.466522 618.990723,531.707153 
	C619.619080,532.870178 620.420471,533.939819 621.212036,535.391357 
	C619.978638,534.730469 618.219971,534.001221 617.440674,532.690002 
	C609.794739,519.825439 603.383484,506.187683 601.607788,491.357758 
	C600.053162,478.373840 598.888855,464.840332 605.804138,452.519531 
	C606.498047,451.283234 607.548828,450.247192 608.793823,449.100830 
z"/>
<path fill="#E6F6D3" opacity="1.000000" stroke="none" 
	d="
M864.702026,242.048065 
	C857.512329,248.501984 849.640503,254.612427 842.434021,261.426544 
	C836.428040,267.105591 831.202637,273.610229 825.325195,279.885864 
	C824.838867,272.965057 830.380798,269.158783 834.480286,265.072418 
	C841.968506,257.608215 850.316589,250.992126 858.482178,244.235184 
	C859.999268,242.979813 862.344788,242.725555 864.702026,242.048065 
z"/>
<path fill="#7EA658" opacity="1.000000" stroke="none" 
	d="
M1025.731445,545.089966 
	C1016.080811,552.431702 1004.706360,556.393250 992.284851,558.704712 
	C991.250427,558.984924 990.510376,559.019043 988.983032,559.060425 
	C985.787781,559.360291 983.379822,559.652893 980.971863,559.945496 
	C979.591492,559.915955 978.211060,559.886414 976.023193,559.795654 
	C966.126465,558.245300 957.037292,556.756104 947.948059,555.266968 
	C949.095642,555.060852 950.273499,554.573425 951.386108,554.692810 
	C961.061584,555.730896 970.713135,557.644958 980.395630,557.799194 
	C992.651123,557.994507 1004.423767,554.877197 1015.414612,549.129395 
	C1018.569641,547.479431 1022.016968,546.388367 1025.731445,545.089966 
z"/>
<path fill="#E6F6D3" opacity="1.000000" stroke="none" 
	d="
M840.531006,328.080719 
	C832.217102,342.160126 823.880798,356.226349 815.611084,370.331635 
	C814.200928,372.736969 813.075867,375.309509 811.742615,378.215881 
	C811.320862,377.099823 810.163818,375.028564 810.763062,374.134430 
	C814.462097,368.615051 815.667297,361.900482 820.958557,356.920776 
	C825.036865,353.082581 826.709961,346.688660 830.019836,341.083466 
	C831.054871,339.822815 831.522583,338.909821 831.990234,337.996796 
	C832.666077,336.907166 833.341858,335.817505 834.318726,334.221649 
	C836.590210,331.837189 838.560608,329.958954 840.531006,328.080719 
z"/>
<path fill="#E6F6D3" opacity="1.000000" stroke="none" 
	d="
M819.756836,287.094421 
	C813.625854,298.895447 807.266846,310.787872 804.779968,324.204498 
	C803.362122,331.853699 802.530090,339.611450 801.215942,347.659973 
	C800.709900,342.784607 799.199951,337.277435 800.363525,332.409332 
	C803.847839,317.831696 807.781921,303.272980 815.916321,290.370544 
	C816.738708,289.066162 818.221497,288.178131 819.756836,287.094421 
z"/>
<path fill="#E6F6D3" opacity="1.000000" stroke="none" 
	d="
M819.320435,377.474670 
	C828.576904,373.214355 838.266296,369.479004 847.620361,365.037292 
	C851.556946,363.168060 854.785034,359.806885 858.669495,357.064026 
	C859.441589,363.294678 853.624329,364.000305 850.100586,366.162262 
	C843.781250,370.039520 836.969299,373.214935 830.103149,376.054779 
	C826.923218,377.369995 823.132019,377.207031 819.320435,377.474670 
z"/>
<path fill="#C6F5F7" opacity="1.000000" stroke="none" 
	d="
M460.202576,478.115295 
	C472.330902,484.558899 484.414398,491.370911 496.483826,498.207886 
	C498.061676,499.101685 499.566925,500.123688 501.286438,501.374115 
	C498.954620,501.021759 496.170044,500.873077 493.975922,499.658112 
	C483.372650,493.786469 472.906921,487.664215 462.461334,481.513763 
	C461.449585,480.918030 460.911377,479.518066 460.202576,478.115295 
z"/>
<path fill="#E6F6D3" opacity="1.000000" stroke="none" 
	d="
M801.970093,369.579559 
	C806.807434,362.928101 811.732605,356.608459 816.570190,350.222473 
	C819.847534,345.896301 823.001709,341.476929 826.519531,336.966736 
	C825.135864,340.569153 823.927856,344.634979 821.649475,347.969452 
	C817.040466,354.714813 811.953979,361.146851 806.813110,367.504944 
	C805.794067,368.765350 803.647400,369.114044 801.970093,369.579559 
z"/>
<path fill="#D1F5F6" opacity="1.000000" stroke="none" 
	d="
M666.921265,433.709534 
	C651.919861,427.515442 637.138428,427.303528 622.350586,435.857452 
	C624.907043,430.006622 631.014954,429.266388 636.189819,428.371246 
	C645.643860,426.735870 655.270935,427.056610 664.286255,431.262085 
	C665.265747,431.718994 666.027588,432.642395 666.921265,433.709534 
z"/>
<path fill="#C6F5F7" opacity="1.000000" stroke="none" 
	d="
M433.988525,470.485229 
	C433.153442,470.407410 431.847137,470.215240 431.498383,469.533325 
	C430.542725,467.664703 429.989746,465.590118 429.277344,463.597046 
	C431.343719,463.357239 433.697510,462.371490 435.416321,463.033722 
	C438.936462,464.390045 442.137543,466.593750 445.430145,468.516724 
	C449.869141,471.109192 454.270569,473.765991 458.835815,476.699097 
	C454.301208,474.778595 449.603088,472.586761 444.941376,470.320099 
	C440.767365,468.290588 436.633453,466.178589 432.481873,464.102966 
	C432.221222,464.536285 431.960571,464.969635 431.699890,465.402954 
	C432.451294,466.984467 433.202728,468.565979 433.988525,470.485229 
z"/>
<path fill="#EAF9D9" opacity="1.000000" stroke="none" 
	d="
M947.623413,555.222412 
	C957.037292,556.756104 966.126465,558.245300 975.612549,559.854614 
	C975.554077,560.577209 975.009583,561.753235 974.656433,561.698364 
	C965.094177,560.211792 955.529114,558.718201 946.021179,556.925110 
	C943.613342,556.471069 941.398193,554.995300 939.349792,553.585938 
	C940.045654,553.180847 940.486206,553.178894 940.926819,553.176941 
	C940.926819,553.176941 940.985535,553.080872 941.155518,553.371643 
	C942.892883,554.062805 944.460388,554.463257 946.027832,554.863647 
	C946.451477,554.968384 946.875122,555.073120 947.623413,555.222412 
z"/>
<path fill="#E6F6D3" opacity="1.000000" stroke="none" 
	d="
M889.823059,226.593124 
	C881.891785,231.946945 873.830078,236.975494 865.424438,242.055145 
	C865.455139,241.240448 865.586792,240.050140 866.242249,239.559189 
	C872.655762,234.755844 879.098206,229.983597 885.710693,225.463242 
	C886.490295,224.930252 888.339355,225.961655 889.823059,226.593124 
z"/>
<path fill="#C6F5F7" opacity="1.000000" stroke="none" 
	d="
M459.989868,486.483978 
	C452.134308,482.075317 444.239868,477.328674 436.181946,472.287476 
	C439.798309,473.718933 443.772125,475.122925 447.308868,477.252716 
	C451.711517,479.903961 455.753357,483.154358 459.989868,486.483978 
z"/>
<path fill="#D1F5F6" opacity="1.000000" stroke="none" 
	d="
M682.944397,448.702332 
	C677.697815,444.278259 672.497314,439.448090 667.114563,434.337891 
	C673.587219,434.392731 682.630676,442.411316 682.944397,448.702332 
z"/>
<path fill="#EAF9D9" opacity="1.000000" stroke="none" 
	d="
M933.857300,523.875610 
	C936.609741,520.558594 939.439819,517.308716 942.606079,514.000732 
	C942.942322,513.942627 943.281067,514.282349 943.229614,514.687988 
	C941.984985,516.556213 940.791809,518.018738 939.598633,519.481262 
	C939.598572,519.481262 939.579651,519.570984 939.226379,519.623413 
	C937.277161,521.144714 935.681274,522.613586 934.085327,524.082458 
	C934.085327,524.082458 933.934875,523.942810 933.857300,523.875610 
z"/>
<path fill="#7EA658" opacity="1.000000" stroke="none" 
	d="
M940.768250,552.863281 
	C940.486206,553.178894 940.045654,553.180847 939.277527,553.231323 
	C938.327026,553.113464 937.703979,552.947083 936.497559,552.531494 
	C934.617981,551.863098 933.321777,551.443909 932.025513,551.024719 
	C931.857666,550.419617 931.689758,549.814514 932.126953,549.067993 
	C934.146606,548.591675 935.561096,548.256592 936.975647,547.921509 
	C938.187012,549.464233 939.398376,551.006958 940.768250,552.863281 
z"/>
<path fill="#FAFDF3" opacity="1.000000" stroke="none" 
	d="
M840.683167,327.895966 
	C838.560608,329.958954 836.590210,331.837189 834.325317,333.874451 
	C833.824036,333.757996 833.617188,333.482513 833.188721,332.659821 
	C832.839355,330.969635 832.711670,329.826721 832.584045,328.683777 
	C832.584045,328.683777 832.643433,328.648773 833.047852,328.712708 
	C835.955078,328.267487 838.457947,327.758362 840.960754,327.249237 
	C840.960754,327.249237 840.835327,327.711212 840.683167,327.895966 
z"/>
<path fill="#C6F5F7" opacity="1.000000" stroke="none" 
	d="
M476.838348,496.748169 
	C473.729675,495.264099 470.504456,493.454498 467.116272,491.353088 
	C471.094391,491.236023 474.579987,492.605042 476.838348,496.748169 
z"/>
<path fill="#E6F6D3" opacity="1.000000" stroke="none" 
	d="
M832.301880,328.842957 
	C832.711670,329.826721 832.839355,330.969635 832.955811,332.542114 
	C831.149292,334.292480 829.353882,335.613312 827.187134,336.883972 
	C828.550354,334.223267 830.285034,331.612701 832.301880,328.842957 
z"/>
<path fill="#E6F6D3" opacity="1.000000" stroke="none" 
	d="
M859.397034,357.017761 
	C860.756531,354.999603 862.508972,352.995331 864.570312,350.869965 
	C865.367798,354.613068 864.060364,357.022430 859.397034,357.017761 
z"/>
<path fill="#E6F6D3" opacity="1.000000" stroke="none" 
	d="
M800.673218,360.294373 
	C801.281982,362.736572 801.612610,365.458801 801.881592,368.615173 
	C801.345032,366.224335 800.870056,363.399384 800.673218,360.294373 
z"/>
<path fill="#E6F6D3" opacity="1.000000" stroke="none" 
	d="
M800.548157,350.994629 
	C800.969360,353.039764 801.035156,355.099487 800.998169,357.590515 
	C798.343201,355.342407 798.102844,352.943817 800.548157,350.994629 
z"/>
<path fill="#EAF9D9" opacity="1.000000" stroke="none" 
	d="
M981.235779,560.239136 
	C983.379822,559.652893 985.787781,559.360291 988.619141,559.134399 
	C986.528198,559.645081 984.013977,560.088928 981.235779,560.239136 
z"/>
<path fill="#D1F5F6" opacity="1.000000" stroke="none" 
	d="
M614.958313,441.267761 
	C613.737854,443.434418 612.149780,445.520325 610.275513,447.760284 
	C611.523132,445.671906 613.056885,443.429474 614.958313,441.267761 
z"/>
<path fill="#7EA658" opacity="1.000000" stroke="none" 
	d="
M939.896240,546.308411 
	C941.467102,545.800659 942.886719,545.476746 944.672607,545.158936 
	C944.746033,549.424988 941.846130,547.842712 939.281494,547.355591 
	C939.216675,546.846802 939.460815,546.645264 939.896240,546.308411 
z"/>
<path fill="#E6F6D3" opacity="1.000000" stroke="none" 
	d="
M823.763489,281.093567 
	C822.995483,283.014740 821.841064,284.903503 820.393372,286.947754 
	C821.192444,285.089203 822.284729,283.075195 823.763489,281.093567 
z"/>
<path fill="#EAF9D9" opacity="1.000000" stroke="none" 
	d="
M937.029907,547.739990 
	C935.561096,548.256592 934.146606,548.591675 932.367188,548.906799 
	C933.569824,548.135315 935.137451,547.383667 936.891357,546.905823 
	C937.077698,547.179626 937.084167,547.558472 937.029907,547.739990 
z"/>
<path fill="#C6F5F7" opacity="1.000000" stroke="none" 
	d="
M466.913391,490.696472 
	C465.600800,490.321594 464.259277,489.586243 462.751953,488.564453 
	C464.018921,488.963989 465.451691,489.649994 466.913391,490.696472 
z"/>
<path fill="#E6F6D3" opacity="1.000000" stroke="none" 
	d="
M813.973511,378.563477 
	C814.710266,378.094971 815.452332,377.954285 816.573059,377.864258 
	C816.397949,378.810852 815.844116,379.706879 815.290344,380.602875 
	C814.853149,380.032379 814.416016,379.461853 813.973511,378.563477 
z"/>
<path fill="#EAF9D9" opacity="1.000000" stroke="none" 
	d="
M932.099609,551.400757 
	C933.321777,551.443909 934.617981,551.863098 936.174438,552.518433 
	C935.014404,552.428711 933.594055,552.102783 932.099609,551.400757 
z"/>
<path fill="#D1F5F6" opacity="1.000000" stroke="none" 
	d="
M618.666260,438.006775 
	C618.343140,438.740479 617.640747,439.449646 616.649658,440.255371 
	C617.002930,439.562042 617.644897,438.772125 618.666260,438.006775 
z"/>
<path fill="#FAFDF3" opacity="1.000000" stroke="none" 
	d="
M831.646362,338.052124 
	C831.522583,338.909821 831.054871,339.822815 830.295776,340.874634 
	C830.437012,340.044769 830.869751,339.076080 831.646362,338.052124 
z"/>
<path fill="#D1F5F6" opacity="1.000000" stroke="none" 
	d="
M621.027527,436.172058 
	C620.807434,436.787994 620.229309,437.367615 619.339355,437.996826 
	C619.574829,437.409546 620.122192,436.772675 621.027527,436.172058 
z"/>
<path fill="#20A8B3" opacity="1.000000" stroke="none" 
	d="
M345.035767,876.032715 
	C345.137360,875.784363 345.285858,875.590332 345.434326,875.396301 
	C345.479004,875.627991 345.523682,875.859619 345.372009,876.143799 
	C345.175659,876.196289 345.082672,876.086975 345.035767,876.032715 
z"/>
<path fill="#70AA3A" opacity="1.000000" stroke="none" 
	d="
M764.029053,1027.966797 
	C763.885132,1027.863403 763.729187,1027.774780 763.573242,1027.686157 
	C763.676880,1027.699829 763.780579,1027.713501 763.940002,1027.868896 
	C763.995789,1028.010742 764.017029,1027.981567 764.029053,1027.966797 
z"/>
<path fill="#D1F5F6" opacity="1.000000" stroke="none" 
	d="
M616.054688,440.333923 
	C616.168213,440.611420 615.987427,440.891205 615.563110,441.252411 
	C615.466553,441.001282 615.613464,440.668762 616.054688,440.333923 
z"/>
<path fill="#E6F6D3" opacity="1.000000" stroke="none" 
	d="
M824.783264,280.118896 
	C824.887756,280.329285 824.751404,280.644836 824.363770,281.053772 
	C824.255737,280.839417 824.399048,280.531738 824.783264,280.118896 
z"/>
<path fill="#21A8B3" opacity="1.000000" stroke="none" 
	d="
M284.006897,643.997437 
	C284.152161,644.029114 284.277954,644.078491 284.403748,644.127869 
	C284.261444,644.213257 284.119171,644.298706 283.963440,644.218262 
	C283.949982,644.052307 283.987427,644.015198 284.006897,643.997437 
z"/>
<path fill="#C6F5F7" opacity="1.000000" stroke="none" 
	d="
M435.863220,471.747681 
	C435.660797,471.878265 435.320374,471.772217 434.848877,471.423950 
	C435.053619,471.291534 435.389435,471.401245 435.863220,471.747681 
z"/>
<path fill="#C6F5F7" opacity="1.000000" stroke="none" 
	d="
M459.122070,477.250427 
	C459.328094,477.109528 459.654205,477.205017 460.100677,477.532806 
	C459.894745,477.672333 459.568451,477.579559 459.122070,477.250427 
z"/>
<path fill="#C6F5F7" opacity="1.000000" stroke="none" 
	d="
M461.850220,487.736389 
	C461.647705,487.862366 461.321167,487.750092 460.869019,487.401550 
	C461.070984,487.276215 461.398590,487.387146 461.850220,487.736389 
z"/>
<path fill="#E6F6D3" opacity="1.000000" stroke="none" 
	d="
M841.221436,327.103577 
	C838.457947,327.758362 835.955078,328.267487 833.036682,328.680084 
	C833.660889,327.063538 834.700623,325.543549 836.421265,324.050690 
	C840.579590,324.930237 840.579590,324.930237 840.982239,321.015259 
	C839.506592,321.681763 838.128845,322.304077 836.751099,322.926422 
	C838.128601,319.868774 840.241516,315.862305 843.603271,317.737000 
	C847.358032,319.830780 843.342773,323.076965 842.320618,325.745941 
	C842.149902,326.191559 841.767029,326.555969 841.221436,327.103577 
z"/>
<path fill="#FAFDF3" opacity="1.000000" stroke="none" 
	d="
M836.588440,323.126465 
	C838.128845,322.304077 839.506592,321.681763 840.982239,321.015259 
	C840.579590,324.930237 840.579590,324.930237 836.715210,323.955383 
	C836.360779,323.664124 836.393250,323.495361 836.588440,323.126465 
z"/>
<path fill="#7EA658" opacity="1.000000" stroke="none" 
	d="
M1000.175415,491.159943 
	C1004.982666,490.242249 1010.064209,488.952484 1015.089111,489.144287 
	C1034.770264,489.895599 1054.434204,491.105133 1074.102173,492.189514 
	C1075.031372,492.240753 1075.936768,492.723541 1077.746460,493.279938 
	C1074.534424,497.412292 1071.641724,501.133850 1068.447021,505.001038 
	C1069.534302,502.095367 1070.923706,499.044006 1072.646851,495.259644 
	C1070.136353,494.582642 1067.430176,493.316559 1064.673828,493.195709 
	C1045.178345,492.341064 1025.673096,491.703552 1006.169006,491.054962 
	C1004.260559,490.991516 1002.339050,491.321350 1000.175415,491.159943 
z"/>
<path fill="#7EA658" opacity="1.000000" stroke="none" 
	d="
M939.977661,519.617432 
	C940.791809,518.018738 941.984985,516.556213 943.398987,514.857910 
	C958.781250,501.467438 976.496826,494.005463 996.630859,491.089050 
	C996.212463,491.785980 995.472229,492.740509 994.542358,492.990723 
	C989.025146,494.475494 982.860718,494.723053 978.056946,497.421478 
	C970.564270,501.630310 961.553955,502.576843 955.133545,509.280548 
	C951.033142,513.561829 945.337280,516.315186 939.977661,519.617432 
z"/>
<path fill="#7EA658" opacity="1.000000" stroke="none" 
	d="
M933.951782,524.390991 
	C935.681274,522.613586 937.277161,521.144714 939.181030,519.630554 
	C937.169006,523.136719 934.776550,526.643921 932.565308,530.261841 
	C931.703125,531.672485 931.248779,533.332336 930.608643,534.878723 
	C931.970032,534.934937 933.400146,535.291260 934.681213,534.997559 
	C941.707397,533.386292 948.676941,531.525940 955.709961,529.947754 
	C958.245544,529.378784 960.903564,529.355957 963.980225,529.145020 
	C951.201294,532.640686 937.947876,536.075317 924.694397,539.509949 
	C924.438843,539.098022 924.183228,538.686157 923.927673,538.274231 
	C927.224487,533.749390 930.521362,529.224487 933.951782,524.390991 
z"/>
<path fill="#7EA658" opacity="1.000000" stroke="none" 
	d="
M947.008911,544.860229 
	C959.173584,540.555115 971.825928,536.382080 984.410156,532.013062 
	C986.819153,531.176697 988.960266,529.568604 991.494995,528.116577 
	C994.113586,530.279114 992.491821,531.326782 990.319641,532.020752 
	C979.771118,535.390869 969.222595,538.763062 958.639954,542.023499 
	C954.968201,543.154663 951.197998,543.966492 947.008911,544.860229 
z"/>
<path fill="#7EA658" opacity="1.000000" stroke="none" 
	d="
M1067.804688,505.122864 
	C1063.533081,510.534424 1058.893799,515.929749 1053.952881,521.380859 
	C1054.607544,519.569153 1055.222290,517.389709 1056.587158,515.895691 
	C1060.023438,512.134583 1063.798218,508.682587 1067.804688,505.122864 
z"/>
<path fill="#7EA658" opacity="1.000000" stroke="none" 
	d="
M1053.099609,521.467102 
	C1050.420532,524.793274 1047.359253,528.064941 1044.001221,531.396973 
	C1043.738281,525.443542 1047.932373,523.162781 1053.099609,521.467102 
z"/>
<path fill="#7EA658" opacity="1.000000" stroke="none" 
	d="
M986.951172,523.668701 
	C981.922852,525.305969 976.837585,526.605103 971.360596,527.876404 
	C971.101440,527.371826 971.154236,526.521057 971.378296,526.473267 
	C976.538940,525.372864 981.718323,524.359863 986.951172,523.668701 
z"/>
<path fill="#7EA658" opacity="1.000000" stroke="none" 
	d="
M1035.802979,538.060791 
	C1033.075195,540.417175 1029.948486,542.743042 1026.479980,545.119385 
	C1026.935669,539.816833 1031.070923,538.795166 1035.802979,538.060791 
z"/>
<path fill="#7EA658" opacity="1.000000" stroke="none" 
	d="
M1040.980713,533.351013 
	C1040.166382,534.705444 1038.970703,535.910400 1037.454102,537.215942 
	C1038.288574,535.944763 1039.443970,534.573120 1040.980713,533.351013 
z"/>
<path fill="#7EA658" opacity="1.000000" stroke="none" 
	d="
M945.937378,554.501831 
	C944.460388,554.463257 942.892883,554.062805 941.104248,553.394958 
	C942.537659,553.464966 944.192322,553.802490 945.937378,554.501831 
z"/>
<path fill="#7EA658" opacity="1.000000" stroke="none" 
	d="
M1043.065552,531.512573 
	C1042.947998,532.218750 1042.483887,532.739563 1041.754517,533.320068 
	C1041.899292,532.695618 1042.309082,532.011414 1043.065552,531.512573 
z"/>
<path fill="#7EA658" opacity="1.000000" stroke="none" 
	d="
M966.890320,528.672729 
	C966.839783,528.879211 966.678223,528.945190 966.255981,528.986938 
	C966.256653,528.819214 966.518005,528.675720 966.890320,528.672729 
z"/>
</svg>