<?xml version="1.0" encoding="UTF-8"?>
<svg version="1.1" xmlns="http://www.w3.org/2000/svg" width="151" height="136">
<path d="M0 0 C49.83 0 99.66 0 151 0 C151 44.88 151 89.76 151 136 C101.17 136 51.34 136 0 136 C0 91.12 0 46.24 0 0 Z " fill="#0E242A" transform="translate(0,0)"/>
<path d="M0 0 C1.2375 -0.02320313 1.2375 -0.02320313 2.5 -0.046875 C6.20617916 1.13446961 8.24264893 3.38733332 10 6.75 C10.55895698 9.58297451 10.48134137 12.25209907 10.3125 15.125 C10.28994141 15.86105469 10.26738281 16.59710938 10.24414062 17.35546875 C10.18572927 19.15453842 10.09606337 20.95254753 10 22.75 C11.53720703 22.69779297 11.53720703 22.69779297 13.10546875 22.64453125 C14.46612936 22.61637965 15.8268078 22.58908096 17.1875 22.5625 C17.86103516 22.53736328 18.53457031 22.51222656 19.22851562 22.48632812 C23.72042123 22.42059292 26.40992321 23.04424359 30 25.75 C32.33163242 28.08163242 32.9385006 29.34586111 33.4375 32.625 C32.88596783 36.56451552 31.49456997 38.68524261 29 41.75 C25.23699626 43.00433458 21.72789091 42.85695422 17.8125 42.8125 C17.06291016 42.80798828 16.31332031 42.80347656 15.54101562 42.79882812 C13.69397617 42.78706354 11.84697787 42.76912865 10 42.75 C10.05220703 44.39548828 10.05220703 44.39548828 10.10546875 46.07421875 C10.13361865 47.52863045 10.16091752 48.9830588 10.1875 50.4375 C10.21263672 51.15873047 10.23777344 51.87996094 10.26367188 52.62304688 C10.32668998 57.22336884 9.83905242 60.09385445 7 63.75 C3.78477863 66.07826375 0.89169575 66.14711181 -3 65.75 C-5.67289548 64.53504751 -7.42404026 63.56031577 -9.1328125 61.15625 C-10.40052815 57.63862458 -10.20965475 54.18573763 -10.125 50.5 C-10.11597656 49.75492188 -10.10695313 49.00984375 -10.09765625 48.2421875 C-10.07418358 46.41131941 -10.03831525 44.58061762 -10 42.75 C-11.16917969 42.80800781 -12.33835937 42.86601563 -13.54296875 42.92578125 C-15.0911058 42.97269449 -16.63928617 43.01819298 -18.1875 43.0625 C-19.34088867 43.1253418 -19.34088867 43.1253418 -20.51757812 43.18945312 C-24.86486574 43.28274256 -26.46812721 43.17619349 -29.98828125 40.35546875 C-32.90529362 36.57751292 -33.55340715 34.54619532 -33 29.75 C-31.18689858 26.82062346 -29.12704101 24.31352051 -26 22.75 C-23.28239892 22.67818179 -20.59140612 22.65700494 -17.875 22.6875 C-17.12089844 22.69201172 -16.36679687 22.69652344 -15.58984375 22.70117188 C-13.72652873 22.71296501 -11.86325445 22.73090058 -10 22.75 C-10.05800781 21.66460937 -10.11601563 20.57921875 -10.17578125 19.4609375 C-10.22270558 18.01566824 -10.26820287 16.57035216 -10.3125 15.125 C-10.35439453 14.41214844 -10.39628906 13.69929688 -10.43945312 12.96484375 C-10.52970622 9.02980883 -10.21633876 6.46033505 -7.79296875 3.2734375 C-4.86446752 0.62754688 -3.86136173 -0.07240053 0 0 Z " fill="#567AFB" transform="translate(73,12.25)"/>
<path d="M0 0 C1.2375 -0.02320313 1.2375 -0.02320313 2.5 -0.046875 C6.20617916 1.13446961 8.24264893 3.38733332 10 6.75 C10.55895698 9.58297451 10.48134137 12.25209907 10.3125 15.125 C10.28994141 15.86105469 10.26738281 16.59710938 10.24414062 17.35546875 C10.18572927 19.15453842 10.09606337 20.95254753 10 22.75 C11.53720703 22.69779297 11.53720703 22.69779297 13.10546875 22.64453125 C14.46612936 22.61637965 15.8268078 22.58908096 17.1875 22.5625 C17.86103516 22.53736328 18.53457031 22.51222656 19.22851562 22.48632812 C23.72042123 22.42059292 26.40992321 23.04424359 30 25.75 C32.33163242 28.08163242 32.9385006 29.34586111 33.4375 32.625 C32.88596783 36.56451552 31.49456997 38.68524261 29 41.75 C25.23699626 43.00433458 21.72789091 42.85695422 17.8125 42.8125 C17.06291016 42.80798828 16.31332031 42.80347656 15.54101562 42.79882812 C13.69397617 42.78706354 11.84697787 42.76912865 10 42.75 C9.96261719 42.01394531 9.92523438 41.27789062 9.88671875 40.51953125 C9.44691778 33.99150508 9.13136164 29.48994143 4 25 C-0.52939144 23.11275357 -5.13512703 22.99707761 -10 22.75 C-10.13593443 20.20651575 -10.23448907 17.67038504 -10.3125 15.125 C-10.35439453 14.41214844 -10.39628906 13.69929688 -10.43945312 12.96484375 C-10.52970622 9.02980883 -10.21633876 6.46033505 -7.79296875 3.2734375 C-4.86446752 0.62754688 -3.86136173 -0.07240053 0 0 Z " fill="#65D8FB" transform="translate(73,12.25)"/>
<path d="M0 0 C-0.804375 0.61875 -1.60875 1.2375 -2.4375 1.875 C-5.03874519 3.74164041 -5.03874519 3.74164041 -6 6 C-6.2322646 8.71262116 -6.41936235 11.40773126 -6.5625 14.125 C-6.60568359 14.87910156 -6.64886719 15.63320313 -6.69335938 16.41015625 C-6.7994832 18.27321888 -6.90025001 20.13658524 -7 22 C-8.66289063 22.05607422 -8.66289063 22.05607422 -10.359375 22.11328125 C-11.82294974 22.17895448 -13.28648991 22.24540135 -14.75 22.3125 C-15.84441406 22.34633789 -15.84441406 22.34633789 -16.9609375 22.38085938 C-21.28050512 22.59683776 -23.78148432 23.08614964 -27 26 C-27.66 26 -28.32 26 -29 26 C-28.46026708 17.36427331 -24.0447773 11.41700318 -17.8984375 5.5390625 C-12.8784514 1.46936184 -6.45479196 -2.07475456 0 0 Z " fill="#000102" transform="translate(70,13)"/>
<path d="M0 0 C9.39738633 0.34805135 16.09391756 4.62833353 22.4375 11.4375 C26.55399921 16.37729905 29 20.41011495 29 27 C28.401875 26.690625 27.80375 26.38125 27.1875 26.0625 C22.93384177 23.99643743 18.95333277 23.70182381 14.3125 23.4375 C13.2596582 23.37272461 13.2596582 23.37272461 12.18554688 23.30664062 C10.45724794 23.2008264 8.7286489 23.09993419 7 23 C6.96132812 21.35451172 6.96132812 21.35451172 6.921875 19.67578125 C6.8655731 18.22131552 6.80822623 16.76688997 6.75 15.3125 C6.73582031 14.59126953 6.72164063 13.87003906 6.70703125 13.12695312 C6.42785996 7.01310189 4.3092702 4.3092702 0 0 Z " fill="#000202" transform="translate(76,12)"/>
<path d="M0 0 C0.64324219 0.48082031 1.28648438 0.96164063 1.94921875 1.45703125 C5.95655425 3.48378864 9.38257554 3.55753575 13.8125 3.6875 C14.60076172 3.72166016 15.38902344 3.75582031 16.20117188 3.79101562 C18.13363119 3.87299875 20.06679035 3.93818845 22 4 C22.03738281 5.09699219 22.07476562 6.19398437 22.11328125 7.32421875 C22.17896653 8.77867857 22.24541299 10.23310416 22.3125 11.6875 C22.33505859 12.40873047 22.35761719 13.12996094 22.38085938 13.87304688 C22.6108649 18.45224782 23.41662617 21.09961206 26 25 C25.67 25.66 25.34 26.32 25 27 C15.71858448 23.93789365 8.54135429 19.20941377 3 11 C1.00738613 6.94360748 0 4.54701828 0 0 Z " fill="#010204" transform="translate(41,51)"/>
<path d="M0 0 C-0.32006492 7.52152565 -3.78228041 12.68632455 -8.96484375 18.0234375 C-13.36550568 22.02711073 -17.72401344 25.7863487 -23.875 26.1875 C-24.926875 26.0946875 -24.926875 26.0946875 -26 26 C-25.51917969 25.18273437 -25.03835937 24.36546875 -24.54296875 23.5234375 C-22.73444973 19.39360419 -22.45321324 16.07153826 -22.3125 11.625 C-22.27833984 10.88894531 -22.24417969 10.15289062 -22.20898438 9.39453125 C-22.12727211 7.59686147 -22.06194219 5.79845954 -22 4 C-20.90300781 3.96261719 -19.80601563 3.92523438 -18.67578125 3.88671875 C-17.22132143 3.82103347 -15.76689584 3.75458701 -14.3125 3.6875 C-13.59126953 3.66494141 -12.87003906 3.64238281 -12.12695312 3.61914062 C-7.77129615 3.40036333 -3.5804157 0 0 0 Z " fill="#010304" transform="translate(105,51)"/>
<path d="M0 0 C9.70994764 -0.62198953 9.70994764 -0.62198953 14.5 1.6875 C17.99311586 4.91863217 19.86439023 6.86640636 20.17578125 11.765625 C20.18636658 14.51781094 20.12998029 17.25115752 20 20 C8.18478865 20.86033092 8.18478865 20.86033092 4.375 17.8125 C-0.46760406 12.07783729 -0.25312849 7.24228747 0 0 Z " fill="#2824FE" transform="translate(63,35)"/>
<path d="M0 0 C2 1 4 2 6 3 C6.33 2.01 6.66 1.02 7 0 C8.98 0 10.96 0 13 0 C13 2.64 13 5.28 13 8 C13.99 7.67 14.98 7.34 16 7 C16.33 4.69 16.66 2.38 17 0 C17.99 0 18.98 0 20 0 C20 3.3 20 6.6 20 10 C13.9453125 10.1953125 13.9453125 10.1953125 12 10 C9.4345406 7.4345406 9.45953913 5.52313332 9 2 C8.20046862 5.28696233 7.90341064 6.71023192 9 10 C6.525 9.01 6.525 9.01 4 8 C3.67 8.66 3.34 9.32 3 10 C2.01 9.67 1.02 9.34 0 9 C0.556875 7.88625 0.556875 7.88625 1.125 6.75 C2.29515863 4.05716353 2.29515863 4.05716353 1.125 1.6875 C0.75375 1.130625 0.3825 0.57375 0 0 Z " fill="#D2D6D7" transform="translate(98,86)"/>
<path d="M0 0 C4.38635744 2.19317872 5.51256905 3.91350629 8 8 C8.33 5.69 8.66 3.38 9 1 C9.66 1 10.32 1 11 1 C11 5.29 11 9.58 11 14 C10.01 14 9.02 14 8 14 C6.61328125 12.25 6.61328125 12.25 5.3125 10 C4.87550781 9.2575 4.43851562 8.515 3.98828125 7.75 C3.66214844 7.1725 3.33601563 6.595 3 6 C2.67 8.64 2.34 11.28 2 14 C1.34 14 0.68 14 0 14 C0 9.38 0 4.76 0 0 Z " fill="#F4F5F5" transform="translate(75,82)"/>
<path d="M0 0 C0.99 0 1.98 0 3 0 C3 1.98 3 3.96 3 6 C4.98 6 6.96 6 9 6 C9 4.35 9 2.7 9 1 C9.66 1 10.32 1 11 1 C11 5.29 11 9.58 11 14 C10.34 14 9.68 14 9 14 C9 12.02 9 10.04 9 8 C7.02 8 5.04 8 3 8 C3 9.98 3 11.96 3 14 C2.01 14 1.02 14 0 14 C0 9.38 0 4.76 0 0 Z " fill="#D6DADB" transform="translate(19,82)"/>
<path d="M0 0 C0.99 0 1.98 0 3 0 C3.33 1.32 3.66 2.64 4 4 C5.65 4.33 7.3 4.66 9 5 C9 7.97 9 10.94 9 14 C8.34 14 7.68 14 7 14 C6.67 11.69 6.34 9.38 6 7 C5.34 7 4.68 7 4 7 C3.67 9.31 3.34 11.62 3 14 C2.01 14 1.02 14 0 14 C0 9.38 0 4.76 0 0 Z " fill="#E8EAEB" transform="translate(64,82)"/>
<path d="M0 0 C2.5 0.25 2.5 0.25 4.5 2.25 C4.5 3.57 4.5 4.89 4.5 6.25 C3.51 6.58 2.52 6.91 1.5 7.25 C2.49 7.58 3.48 7.91 4.5 8.25 C2.5 10.25 2.5 10.25 0 10.5 C-2.5 10.25 -2.5 10.25 -4.5 8.25 C-4.75 5.25 -4.75 5.25 -4.5 2.25 C-2.5 0.25 -2.5 0.25 0 0 Z " fill="#E0E3E4" transform="translate(92.5,85.75)"/>
<path d="M0 0 C2.5 0.25 2.5 0.25 4.5 2.25 C4.5 3.57 4.5 4.89 4.5 6.25 C3.51 6.58 2.52 6.91 1.5 7.25 C2.49 7.58 3.48 7.91 4.5 8.25 C2.5 10.25 2.5 10.25 0 10.5 C-2.5 10.25 -2.5 10.25 -4.5 8.25 C-4.75 5.25 -4.75 5.25 -4.5 2.25 C-2.5 0.25 -2.5 0.25 0 0 Z " fill="#E0E3E4" transform="translate(36.5,85.75)"/>
<path d="M0 0 C1 1 1 1 1.09765625 2.84765625 C1.04882812 5.92382812 1.04882812 5.92382812 1 9 C-1.64 9 -4.28 9 -7 9 C-7.5625 7.0625 -7.5625 7.0625 -8 5 C-7 4 -7 4 -3.9375 3.9375 C-2.4834375 3.9684375 -2.4834375 3.9684375 -1 4 C-1.33 3.34 -1.66 2.68 -2 2 C-3.65 2 -5.3 2 -7 2 C-7 1.34 -7 0.68 -7 0 C-4.31633121 -1.3418344 -2.84719317 -0.73004953 0 0 Z " fill="#EEEFF0" transform="translate(50,87)"/>
<path d="M0 0 C0.99 0 1.98 0 3 0 C3 3.3 3 6.6 3 10 C-3.0546875 10.1953125 -3.0546875 10.1953125 -5 10 C-7 8 -7 8 -7.125 4.375 C-7.08375 3.26125 -7.0425 2.1475 -7 1 C-6.34 1 -5.68 1 -5 1 C-4.67 2.98 -4.34 4.96 -4 7 C-3.01 7 -2.02 7 -1 7 C-0.67 4.69 -0.34 2.38 0 0 Z " fill="#EDEFEF" transform="translate(115,86)"/>
<path d="M0 0 C2.4375 0.375 2.4375 0.375 5 1 C5.33 1.66 5.66 2.32 6 3 C4.35 2.67 2.7 2.34 1 2 C1 2.66 1 3.32 1 4 C2.65 4.33 4.3 4.66 6 5 C5.67 6.65 5.34 8.3 5 10 C3.02 10 1.04 10 -1 10 C-1.33 9.01 -1.66 8.02 -2 7 C-0.35 7 1.3 7 3 7 C1.35 6.01 -0.3 5.02 -2 4 C-1.34 2.68 -0.68 1.36 0 0 Z " fill="#E1E4E5" transform="translate(121,86)"/>
<path d="M0 0 C0.66 0 1.32 0 2 0 C2 0.66 2 1.32 2 2 C2.99 2 3.98 2 5 2 C5 2.66 5 3.32 5 4 C4.01 4 3.02 4 2 4 C2 5.98 2 7.96 2 10 C2.99 10 3.98 10 5 10 C5 10.66 5 11.32 5 12 C3.35 11.67 1.7 11.34 0 11 C0 8.69 0 6.38 0 4 C-0.66 4 -1.32 4 -2 4 C-2 3.34 -2 2.68 -2 2 C-1.34 2 -0.68 2 0 2 C0 1.34 0 0.68 0 0 Z " fill="#EBEDED" transform="translate(58,84)"/>
<path d="M0 0 C0.226875 0.639375 0.45375 1.27875 0.6875 1.9375 C1.85250896 4.27193661 1.85250896 4.27193661 4.625 4.75 C5.40875 4.8325 6.1925 4.915 7 5 C7 7.97 7 10.94 7 14 C6.34 14 5.68 14 5 14 C4.67 11.69 4.34 9.38 4 7 C2.68 6.67 1.36 6.34 0 6 C0 4.02 0 2.04 0 0 Z " fill="#DCDFE0" transform="translate(66,82)"/>
<path d="M0 0 C0.66 0 1.32 0 2 0 C2 4.29 2 8.58 2 13 C1.34 13 0.68 13 0 13 C0 11.02 0 9.04 0 7 C-1.65 7 -3.3 7 -5 7 C-5 6.67 -5 6.34 -5 6 C-3.35 6 -1.7 6 0 6 C0 4.02 0 2.04 0 0 Z " fill="#FFFFFF" transform="translate(28,83)"/>
<path d="M0 0 C1.32 1.32 2.64 2.64 4 4 C3.67 4.99 3.34 5.98 3 7 C-1.455 7.495 -1.455 7.495 -6 8 C-6.33 7.34 -6.66 6.68 -7 6 C-4.69 6 -2.38 6 0 6 C-0.2784375 4.7934375 -0.2784375 4.7934375 -0.5625 3.5625 C-0.706875 2.716875 -0.85125 1.87125 -1 1 C-0.67 0.67 -0.34 0.34 0 0 Z " fill="#1C3036" transform="translate(97,86)"/>
<path d="M0 0 C0.99 0 1.98 0 3 0 C3 3.3 3 6.6 3 10 C2.34 10 1.68 10 1 10 C-0.60725635 6.78548731 -0.05748185 3.56387464 0 0 Z " fill="#CBD0D1" transform="translate(115,86)"/>
<path d="M0 0 C0.66 1.32 1.32 2.64 2 4 C3.98 4 5.96 4 8 4 C7.01 5.485 7.01 5.485 6 7 C3.5 7.3125 3.5 7.3125 1 7 C0.34 6.34 -0.32 5.68 -1 5 C-0.625 2.375 -0.625 2.375 0 0 Z " fill="#F1F3F3" transform="translate(89,89)"/>
<path d="M0 0 C0.66 1.32 1.32 2.64 2 4 C3.98 4 5.96 4 8 4 C7.01 5.485 7.01 5.485 6 7 C3.5 7.3125 3.5 7.3125 1 7 C0.34 6.34 -0.32 5.68 -1 5 C-0.625 2.375 -0.625 2.375 0 0 Z " fill="#F1F3F3" transform="translate(33,89)"/>
<path d="M0 0 C1.32 0 2.64 0 4 0 C4 1.98 4 3.96 4 6 C2.68 6 1.36 6 0 6 C0 4.02 0 2.04 0 0 Z " fill="#2A3D42" transform="translate(60,88)"/>
<path d="M0 0 C0.33 0.66 0.66 1.32 1 2 C1.66 2 2.32 2 3 2 C3 1.34 3 0.68 3 0 C4.32 0 5.64 0 7 0 C6.67 1.32 6.34 2.64 6 4 C4.35 4 2.7 4 1 4 C0.67 2.68 0.34 1.36 0 0 Z " fill="#9FA8AA" transform="translate(42,92)"/>
<path d="M0 0 C1.98 0.495 1.98 0.495 4 1 C4 1.66 4 2.32 4 3 C4.66 3.33 5.32 3.66 6 4 C3.69 4 1.38 4 -1 4 C-0.67 2.68 -0.34 1.36 0 0 Z " fill="#929C9E" transform="translate(91,88)"/>
<path d="M0 0 C1.98 0.495 1.98 0.495 4 1 C4 1.66 4 2.32 4 3 C4.66 3.33 5.32 3.66 6 4 C3.69 4 1.38 4 -1 4 C-0.67 2.68 -0.34 1.36 0 0 Z " fill="#929C9E" transform="translate(35,88)"/>
<path d="M0 0 C0.33 0 0.66 0 1 0 C1.33 2.64 1.66 5.28 2 8 C1.01 8.495 1.01 8.495 0 9 C-2 6 -2 6 -1.6875 3.375 C-1 1 -1 1 0 0 Z " fill="#1F3339" transform="translate(107,87)"/>
</svg>
